<?xml version="1.0" encoding="utf-8"?>
<!-- Generator: Adobe Illustrator 19.1.0, SVG Export Plug-In . SVG Version: 6.00 Build 0)  -->
<svg version="1.1" id="Layer_1" xmlns="http://www.w3.org/2000/svg" xmlns:xlink="http://www.w3.org/1999/xlink" x="0px" y="0px"
	 width="366px" height="192px" viewBox="0 0 366 192" style="enable-background:new 0 0 366 192;" xml:space="preserve">
<style type="text/css">
	.st0{fill:none;}
	.st1{fill:#E07D10;}
	.st2{fill:none;stroke:#ED5FA6;stroke-width:7;stroke-linecap:round;stroke-linejoin:round;stroke-miterlimit:10;}
	.st3{fill:none;stroke:#AA87FF;stroke-width:7;stroke-linecap:round;stroke-linejoin:round;stroke-miterlimit:10;}
	.st4{fill:none;stroke:#FF9C39;stroke-width:7;stroke-linecap:round;stroke-linejoin:round;stroke-miterlimit:10;}
	.st5{fill:#8AF281;stroke:#8AF281;stroke-linecap:round;stroke-linejoin:round;stroke-miterlimit:10;}
	.st6{fill:#FF9C39;stroke:#E07D10;stroke-linecap:round;stroke-linejoin:round;stroke-miterlimit:10;}
	.st7{fill:none;stroke:#8AF281;stroke-width:7;stroke-linecap:round;stroke-linejoin:round;stroke-miterlimit:10;}
	.st8{fill:#ED5FA6;stroke:#ED5FA6;stroke-width:7;stroke-linecap:round;stroke-linejoin:round;stroke-miterlimit:10;}
	.st9{fill:none;stroke:#1FAB54;stroke-width:7;stroke-linecap:round;stroke-linejoin:round;stroke-miterlimit:10;}
	.st10{fill:none;stroke:#1FAB54;stroke-width:6;stroke-linecap:round;stroke-linejoin:round;stroke-miterlimit:10;}
	.st11{fill:#FF9C39;stroke:#FF9C39;stroke-width:5;stroke-linecap:round;stroke-miterlimit:10;}
	.st12{fill:none;stroke:#1FAB54;stroke-width:4;stroke-miterlimit:10;}
	.st13{fill:none;stroke:#3C91E5;stroke-width:4;stroke-miterlimit:10;}
	.st14{fill:#FFFFFF;}
	.st15{fill:none;stroke:#11ACCD;stroke-width:5;stroke-linecap:round;stroke-miterlimit:10;}
	.st16{fill:#11ACCD;}
	.st17{fill:none;stroke:#FF9C39;stroke-width:4;stroke-miterlimit:10;}
	.st18{fill:none;stroke:#63D9EA;stroke-width:7;stroke-linecap:round;stroke-miterlimit:10;}
	.st19{fill:none;stroke:#63D9EA;stroke-width:8;stroke-linecap:round;stroke-miterlimit:10;}
	.st20{fill:none;stroke:#000000;stroke-linecap:round;stroke-linejoin:round;stroke-miterlimit:10;}
	.st21{fill:none;stroke:#000000;stroke-width:1.5;stroke-linecap:round;stroke-linejoin:round;stroke-miterlimit:10;}
	.st22{fill:none;stroke:#000000;stroke-linecap:round;stroke-miterlimit:10;}
	.st23{fill:none;stroke:#000000;stroke-width:1.5;stroke-linecap:round;stroke-miterlimit:10;}
	.st24{fill:none;stroke:#000000;stroke-width:2;stroke-linecap:round;stroke-linejoin:round;stroke-miterlimit:10;}
	.st25{fill:none;stroke:#000000;stroke-width:1.5;stroke-miterlimit:10;}
	.st26{fill:none;stroke:#000000;stroke-miterlimit:10;}
	.st27{fill:none;stroke:#000000;stroke-width:2;stroke-miterlimit:10;}
	.st28{fill:none;stroke:#000000;stroke-width:2;stroke-linecap:round;stroke-miterlimit:10;}
	.st29{fill:none;stroke:#000000;stroke-linecap:round;stroke-linejoin:round;}
	.st30{stroke:#000000;stroke-linecap:round;stroke-linejoin:round;stroke-miterlimit:10;}
	.st31{fill:none;stroke:#000000;stroke-width:1.5;stroke-linejoin:round;stroke-miterlimit:10;}
	.st32{fill:none;stroke:#000000;stroke-linejoin:round;stroke-miterlimit:10;}
	.st33{clip-path:url(#SVGID_2_);fill:none;stroke:#000000;stroke-linejoin:round;stroke-miterlimit:10;}
	.st34{clip-path:url(#SVGID_2_);fill:none;stroke:#ADADEB;stroke-linejoin:round;stroke-miterlimit:10;}
	.st35{clip-path:url(#SVGID_2_);}
	.st36{stroke:#000000;stroke-linejoin:round;stroke-miterlimit:10;}
	.st37{stroke:#000000;stroke-width:3;stroke-linejoin:round;stroke-miterlimit:10;}
	.st38{fill:none;stroke:#E84D39;stroke-width:3;stroke-linecap:round;stroke-linejoin:round;}
	.st39{fill:#E84D39;}
	.st40{fill:none;stroke:#11ACCD;stroke-width:2;stroke-linecap:round;stroke-linejoin:round;}
	.st41{fill:none;stroke:#F9685D;stroke-width:2;stroke-linecap:round;stroke-linejoin:round;}
	.st42{fill:#F9685D;}
	.st43{fill:#11ACCD;stroke:#000000;stroke-linecap:round;stroke-miterlimit:10;}
	.st44{stroke:#000000;stroke-linecap:round;stroke-miterlimit:10;}
	.st45{fill:#FFFF00;stroke:#000000;stroke-linecap:round;stroke-miterlimit:10;}
	.st46{fill:#F9685D;stroke:#000000;stroke-linecap:round;stroke-miterlimit:10;}
	.st47{fill:#D6D8DA;stroke:#000000;stroke-linecap:round;stroke-miterlimit:10;}
	.st48{fill:none;stroke:#FF9C39;stroke-width:5;stroke-linecap:round;stroke-linejoin:round;stroke-miterlimit:10;}
	.st49{fill:#FF9C39;}
	.st50{fill:#AA87FF;}
	.st51{fill:#ED5FA6;}
	.st52{fill:#1FAB54;}
	.st53{fill:none;stroke:#000000;stroke-width:4;stroke-linecap:round;stroke-linejoin:round;stroke-miterlimit:10;}
	.st54{stroke:#000000;stroke-miterlimit:10;}
	.st55{stroke:#000000;stroke-width:2;stroke-linecap:round;stroke-linejoin:round;stroke-miterlimit:10;}
	.st56{fill:none;stroke:#000000;stroke-width:3;stroke-linecap:round;stroke-linejoin:round;stroke-miterlimit:10;}
	.st57{fill:none;stroke:#000000;stroke-linejoin:round;}
	.st58{fill:none;stroke:#000000;stroke-width:7;stroke-linecap:round;stroke-linejoin:round;stroke-miterlimit:10;}
	.st59{fill:none;stroke:#11ACCD;stroke-width:3;stroke-linecap:round;stroke-linejoin:round;}
	.st60{fill:none;stroke:#11ACCD;stroke-width:2;stroke-linecap:round;stroke-miterlimit:10;}
	.st61{fill:none;stroke:#E07D10;stroke-width:2;stroke-linecap:round;stroke-miterlimit:10;}
	.st62{fill:none;stroke:#11ACCD;stroke-width:2;stroke-miterlimit:10;}
	.st63{fill:none;stroke:#000000;stroke-width:3;stroke-linecap:square;stroke-miterlimit:10;}
	.st64{fill:#BE2612;}
	.st65{fill:none;stroke:#BE2612;stroke-width:2;stroke-linecap:round;stroke-linejoin:round;}
	.st66{fill:none;stroke:#21242C;stroke-linecap:round;stroke-linejoin:round;stroke-miterlimit:10;}
	.st67{font-family:'KaTeX_Main-Italic';}
	.st68{font-size:21px;}
	.st69{letter-spacing:1;}
	.st70{font-family:'KaTeX_Main-Regular';}
	.st71{font-size:18px;}
	.st72{fill:none;stroke:#11ACCD;stroke-width:3;stroke-linecap:round;stroke-miterlimit:10;}
	.st73{fill:#FFFFFF;stroke:#000000;stroke-miterlimit:10;}
</style>
<text transform="matrix(1 0 0 1 179.9998 48.9998)" class="st16 st67 st68 st69">i</text>
<g>
	<circle class="st27" cx="90" cy="96" r="18"/>
	<polyline class="st22" points="96,24 90,24 90,54 90,78 	"/>
	<polyline class="st20" points="132,162 90,162 90,138 90,114 	"/>
	<line class="st25" x1="90" y1="82.5" x2="90" y2="94.5"/>
	<line class="st25" x1="84" y1="88.5" x2="96" y2="88.5"/>
	<line class="st25" x1="84" y1="106.5" x2="96" y2="106.5"/>
</g>
<g>
	<circle cx="90" cy="162" r="3"/>
	<rect x="84" y="156" class="st0" width="12" height="12"/>
</g>
<g>
	<line class="st20" x1="161.4" y1="24" x2="180" y2="24"/>
	<polyline class="st24" points="114.6,24 118.5,15 126.3,33 134.1,15 141.9,33 149.7,15 157.5,33 161.4,24 	"/>
	<line class="st20" x1="96" y1="24" x2="114.6" y2="24"/>
	<rect x="96" y="12" class="st0" width="84" height="24"/>
</g>
<g>
	<line class="st20" x1="257.4" y1="24" x2="276" y2="24"/>
	<polyline class="st24" points="210.6,24 214.5,15 222.3,33 230.1,15 237.9,33 245.7,15 253.5,33 257.4,24 	"/>
	<line class="st20" x1="192" y1="24" x2="210.6" y2="24"/>
	<rect x="192" y="12" class="st0" width="84" height="24"/>
</g>
<g>
	<line class="st20" x1="208.8" y1="162" x2="227.4" y2="162"/>
	<polyline class="st24" points="162,162 165.9,153 173.7,171 181.5,153 189.3,171 197.1,153 204.9,171 208.8,162 	"/>
	<line class="st20" x1="132" y1="162" x2="162" y2="162"/>
	<rect x="132" y="150" class="st0" width="95.4" height="24"/>
</g>
<g>
	<line class="st20" x1="282" y1="72.6" x2="282" y2="54"/>
	<polyline class="st24" points="282,119.4 273,115.5 291,107.7 273,99.9 291,92.1 273,84.3 291,76.5 282,72.6 	"/>
	<line class="st20" x1="282" y1="138" x2="282" y2="119.4"/>
	<rect x="270" y="54" class="st0" width="24" height="84"/>
</g>
<line class="st22" x1="180" y1="24" x2="192" y2="24"/>
<polyline class="st22" points="276,24 282,24 282,54 "/>
<polyline class="st22" points="282,138 282,162 227.4,162 "/>
<g>
	<polyline class="st20" points="90,174 97.5,174 97.5,174 97.5,174 90,186 82.5,174 90,174 90,162 	"/>
	<rect x="78" y="162" class="st0" width="24" height="24"/>
</g>
<text transform="matrix(1 0 0 1 113.9997 53.9998)" class="st70 st71 st69">100Ω</text>
<text transform="matrix(1 0 0 1 209.9997 53.9998)" class="st70 st71 st69">200Ω</text>
<text transform="matrix(1 0 0 1 221.9997 101.9998)" class="st70 st71 st69">300Ω</text>
<text transform="matrix(1 0 0 1 167.9998 143.9999)" class="st70 st71 st69">400Ω</text>
<text transform="matrix(1 0 0 1 113.9997 101.9998)" class="st70 st71 st69">20V</text>
<g>
	<g>
		<line class="st59" x1="174" y1="24" x2="187.1" y2="24"/>
		<g>
			<path class="st16" d="M198,24c-5.1,1.9-11.5,5.1-15.4,8.6l3.1-8.6l-3.1-8.6C186.5,18.9,192.9,22.1,198,24z"/>
		</g>
	</g>
</g>
</svg>
