<?xml version="1.0" encoding="utf-8"?>
<!-- Generator: Adobe Illustrator 19.1.0, SVG Export Plug-In . SVG Version: 6.00 Build 0)  -->
<svg version="1.1" id="Layer_1" xmlns="http://www.w3.org/2000/svg" xmlns:xlink="http://www.w3.org/1999/xlink" x="0px" y="0px"
	 width="366px" height="262.5px" viewBox="0 0 366 262.5" style="enable-background:new 0 0 366 262.5;" xml:space="preserve">
<style type="text/css">
	.st0{fill:none;}
	.st1{fill:#E07D10;}
	.st2{fill:none;stroke:#ED5FA6;stroke-width:7;stroke-linecap:round;stroke-linejoin:round;stroke-miterlimit:10;}
	.st3{fill:none;stroke:#AA87FF;stroke-width:7;stroke-linecap:round;stroke-linejoin:round;stroke-miterlimit:10;}
	.st4{fill:none;stroke:#FF9C39;stroke-width:7;stroke-linecap:round;stroke-linejoin:round;stroke-miterlimit:10;}
	.st5{fill:#8AF281;stroke:#8AF281;stroke-linecap:round;stroke-linejoin:round;stroke-miterlimit:10;}
	.st6{fill:#FF9C39;stroke:#E07D10;stroke-linecap:round;stroke-linejoin:round;stroke-miterlimit:10;}
	.st7{fill:none;stroke:#8AF281;stroke-width:7;stroke-linecap:round;stroke-linejoin:round;stroke-miterlimit:10;}
	.st8{fill:#ED5FA6;stroke:#ED5FA6;stroke-width:7;stroke-linecap:round;stroke-linejoin:round;stroke-miterlimit:10;}
	.st9{fill:none;stroke:#1FAB54;stroke-width:7;stroke-linecap:round;stroke-linejoin:round;stroke-miterlimit:10;}
	.st10{fill:none;stroke:#1FAB54;stroke-width:6;stroke-linecap:round;stroke-linejoin:round;stroke-miterlimit:10;}
	.st11{fill:#FF9C39;stroke:#FF9C39;stroke-width:5;stroke-linecap:round;stroke-miterlimit:10;}
	.st12{fill:none;stroke:#1FAB54;stroke-width:4;stroke-miterlimit:10;}
	.st13{fill:none;stroke:#3C91E5;stroke-width:4;stroke-miterlimit:10;}
	.st14{fill:#FFFFFF;}
	.st15{fill:none;stroke:#11ACCD;stroke-width:5;stroke-linecap:round;stroke-miterlimit:10;}
	.st16{fill:#11ACCD;}
	.st17{fill:none;stroke:#FF9C39;stroke-width:4;stroke-miterlimit:10;}
	.st18{fill:none;stroke:#63D9EA;stroke-width:7;stroke-linecap:round;stroke-miterlimit:10;}
	.st19{fill:none;stroke:#63D9EA;stroke-width:8;stroke-linecap:round;stroke-miterlimit:10;}
	.st20{fill:none;stroke:#000000;stroke-linecap:round;stroke-linejoin:round;stroke-miterlimit:10;}
	.st21{fill:none;stroke:#000000;stroke-width:1.5;stroke-linecap:round;stroke-linejoin:round;stroke-miterlimit:10;}
	.st22{fill:none;stroke:#000000;stroke-linecap:round;stroke-miterlimit:10;}
	.st23{fill:none;stroke:#000000;stroke-width:1.5;stroke-linecap:round;stroke-miterlimit:10;}
	.st24{fill:none;stroke:#000000;stroke-width:2;stroke-linecap:round;stroke-linejoin:round;stroke-miterlimit:10;}
	.st25{fill:none;stroke:#000000;stroke-width:1.5;stroke-miterlimit:10;}
	.st26{fill:none;stroke:#000000;stroke-miterlimit:10;}
	.st27{fill:none;stroke:#000000;stroke-width:2;stroke-miterlimit:10;}
	.st28{fill:none;stroke:#000000;stroke-width:2;stroke-linecap:round;stroke-miterlimit:10;}
	.st29{fill:none;stroke:#000000;stroke-linecap:round;stroke-linejoin:round;}
	.st30{stroke:#000000;stroke-linecap:round;stroke-linejoin:round;stroke-miterlimit:10;}
	.st31{fill:none;stroke:#000000;stroke-width:1.5;stroke-linejoin:round;stroke-miterlimit:10;}
	.st32{fill:none;stroke:#000000;stroke-linejoin:round;stroke-miterlimit:10;}
	.st33{clip-path:url(#SVGID_2_);fill:none;stroke:#000000;stroke-linejoin:round;stroke-miterlimit:10;}
	.st34{clip-path:url(#SVGID_2_);fill:none;stroke:#ADADEB;stroke-linejoin:round;stroke-miterlimit:10;}
	.st35{clip-path:url(#SVGID_2_);}
	.st36{stroke:#000000;stroke-linejoin:round;stroke-miterlimit:10;}
	.st37{stroke:#000000;stroke-width:3;stroke-linejoin:round;stroke-miterlimit:10;}
	.st38{fill:none;stroke:#E84D39;stroke-width:3;stroke-linecap:round;stroke-linejoin:round;}
	.st39{fill:#E84D39;}
	.st40{fill:none;stroke:#11ACCD;stroke-width:2;stroke-linecap:round;stroke-linejoin:round;}
	.st41{fill:none;stroke:#F9685D;stroke-width:2;stroke-linecap:round;stroke-linejoin:round;}
	.st42{fill:#F9685D;}
	.st43{fill:#11ACCD;stroke:#000000;stroke-linecap:round;stroke-miterlimit:10;}
	.st44{stroke:#000000;stroke-linecap:round;stroke-miterlimit:10;}
	.st45{fill:#FFFF00;stroke:#000000;stroke-linecap:round;stroke-miterlimit:10;}
	.st46{fill:#F9685D;stroke:#000000;stroke-linecap:round;stroke-miterlimit:10;}
	.st47{fill:#D6D8DA;stroke:#000000;stroke-linecap:round;stroke-miterlimit:10;}
	.st48{fill:none;stroke:#FF9C39;stroke-width:5;stroke-linecap:round;stroke-linejoin:round;stroke-miterlimit:10;}
	.st49{fill:#FF9C39;}
	.st50{fill:#AA87FF;}
	.st51{fill:#ED5FA6;}
	.st52{fill:#1FAB54;}
	.st53{fill:none;stroke:#000000;stroke-width:4;stroke-linecap:round;stroke-linejoin:round;stroke-miterlimit:10;}
	.st54{stroke:#000000;stroke-miterlimit:10;}
	.st55{stroke:#000000;stroke-width:2;stroke-linecap:round;stroke-linejoin:round;stroke-miterlimit:10;}
	.st56{fill:none;stroke:#000000;stroke-width:3;stroke-linecap:round;stroke-linejoin:round;stroke-miterlimit:10;}
	.st57{fill:none;stroke:#000000;stroke-linejoin:round;}
	.st58{fill:none;stroke:#000000;stroke-width:7;stroke-linecap:round;stroke-linejoin:round;stroke-miterlimit:10;}
	.st59{fill:none;stroke:#11ACCD;stroke-width:3;stroke-linecap:round;stroke-linejoin:round;}
	.st60{fill:none;stroke:#11ACCD;stroke-width:2;stroke-linecap:round;stroke-miterlimit:10;}
	.st61{fill:none;stroke:#E07D10;stroke-width:2;stroke-linecap:round;stroke-miterlimit:10;}
	.st62{fill:none;stroke:#11ACCD;stroke-width:2;stroke-miterlimit:10;}
	.st63{font-family:'KaTeX_Main-Italic';}
	.st64{font-size:21px;}
	.st65{letter-spacing:1;}
	.st66{font-family:'KaTeX_Main-Regular';}
	.st67{font-size:24px;}
	.st68{font-size:18px;}
	.st69{fill:none;stroke:#000000;stroke-width:3;stroke-linecap:square;stroke-miterlimit:10;}
	.st70{fill:#BE2612;}
	.st71{fill:none;stroke:#BE2612;stroke-width:2;stroke-linecap:round;stroke-linejoin:round;}
	.st72{fill:none;stroke:#21242C;stroke-linecap:round;stroke-linejoin:round;stroke-miterlimit:10;}
	.st73{fill:none;stroke:#11ACCD;stroke-width:3;stroke-linecap:round;stroke-miterlimit:10;}
	.st74{fill:#FFFFFF;stroke:#000000;stroke-miterlimit:10;}
</style>
<text transform="matrix(1 0 0 1 180.0001 90.4999)" class="st16 st63 st64 st65">i</text>
<text transform="matrix(-1 0 0 1 231.4141 245.5)" class="st1 st66 st67">+      </text>
<text transform="matrix(-0.583 0 0 0.583 176.7422 253.4922)" class="st1 st66 st67">     </text>
<text transform="matrix(-1 0 0 1 159.252 245.5)" class="st1 st66 st67">−</text>
<g>
	<circle class="st27" cx="90" cy="137.5" r="18"/>
	<polyline class="st22" points="96,65.5 90,65.5 90,95.5 90,119.5 	"/>
	<polyline class="st20" points="132,203.5 90,203.5 90,179.5 90,155.5 	"/>
	<line class="st25" x1="90" y1="124" x2="90" y2="136"/>
	<line class="st25" x1="84" y1="130" x2="96" y2="130"/>
	<line class="st25" x1="84" y1="148" x2="96" y2="148"/>
</g>
<g>
	<circle cx="90" cy="203.5" r="3"/>
	<rect x="84" y="197.5" class="st0" width="12" height="12"/>
</g>
<g>
	<g>
		<path class="st61" d="M66,173.5c-3.7-7-6.2-20.5-6.2-36c0-11.4,1.4-21.8,3.6-29.3"/>
		<g>
			<path class="st1" d="M66,101.5c0,3.6,0.5,8.4,1.7,11.6l-4.6-3.9l-6.1-0.1C60.1,107.4,63.6,104.2,66,101.5z"/>
		</g>
	</g>
</g>
<g>
	<g>
		<path class="st61" d="M300,173.5c3.7-7,6.2-20.5,6.2-36c0-11.4-1.4-21.8-3.6-29.3"/>
		<g>
			<path class="st1" d="M300,101.5c2.4,2.7,5.9,5.9,9,7.6l-6.1,0.1l-4.6,3.9C299.5,109.9,300,105.1,300,101.5z"/>
		</g>
	</g>
</g>
<g>
	<g>
		<path class="st61" d="M168,47.5c-6.4-3.7-18.8-6.2-33-6.2c-10.2,0-19.5,1.3-26.3,3.4"/>
		<g>
			<path class="st1" d="M102,47.5c2.7-2.4,5.8-6,7.4-9.1l0.2,6.1l4,4.5C110.4,47.8,105.6,47.4,102,47.5z"/>
		</g>
	</g>
</g>
<g>
	<g>
		<path class="st61" d="M215.3,224.1c-7.5,2.2-17.8,3.6-29.3,3.6c-15.5,0-29-2.5-36-6.2"/>
		<g>
			<path class="st1" d="M222,221.5c-3.6,0-8.4-0.5-11.6-1.7l3.9,4.6l0.1,6.1C216.1,227.4,219.3,223.9,222,221.5z"/>
		</g>
	</g>
</g>
<g>
	<g>
		<path class="st61" d="M264,47.5c-6.4-3.7-18.8-6.2-33-6.2c-10.2,0-19.5,1.3-26.3,3.4"/>
		<g>
			<path class="st1" d="M198,47.5c2.7-2.4,5.8-6,7.4-9.1l0.2,6.1l4,4.5C206.4,47.8,201.6,47.4,198,47.5z"/>
		</g>
	</g>
</g>
<g>
	<line class="st20" x1="161.4" y1="65.5" x2="180" y2="65.5"/>
	<polyline class="st24" points="114.6,65.5 118.5,56.5 126.3,74.5 134.1,56.5 141.9,74.5 149.7,56.5 157.5,74.5 161.4,65.5 	"/>
	<line class="st20" x1="96" y1="65.5" x2="114.6" y2="65.5"/>
	<rect x="96" y="53.5" class="st0" width="84" height="24"/>
</g>
<g>
	<line class="st20" x1="257.4" y1="65.5" x2="276" y2="65.5"/>
	<polyline class="st24" points="210.6,65.5 214.5,56.5 222.3,74.5 230.1,56.5 237.9,74.5 245.7,56.5 253.5,74.5 257.4,65.5 	"/>
	<line class="st20" x1="192" y1="65.5" x2="210.6" y2="65.5"/>
	<rect x="192" y="53.5" class="st0" width="84" height="24"/>
</g>
<g>
	<line class="st20" x1="208.8" y1="203.5" x2="227.4" y2="203.5"/>
	<polyline class="st24" points="162,203.5 165.9,194.5 173.7,212.5 181.5,194.5 189.3,212.5 197.1,194.5 204.9,212.5 208.8,203.5 	
		"/>
	<line class="st20" x1="132" y1="203.5" x2="162" y2="203.5"/>
	<rect x="132" y="191.5" class="st0" width="95.4" height="24"/>
</g>
<g>
	<line class="st20" x1="282" y1="114.1" x2="282" y2="95.5"/>
	<polyline class="st24" points="282,160.9 273,157 291,149.2 273,141.4 291,133.6 273,125.8 291,118 282,114.1 	"/>
	<line class="st20" x1="282" y1="179.5" x2="282" y2="160.9"/>
	<rect x="270" y="95.5" class="st0" width="24" height="84"/>
</g>
<line class="st22" x1="180" y1="65.5" x2="192" y2="65.5"/>
<polyline class="st22" points="276,65.5 282,65.5 282,95.5 "/>
<polyline class="st22" points="282,179.5 282,203.5 227.4,203.5 "/>
<g>
	<polyline class="st20" points="90,215.5 97.5,215.5 97.5,215.5 97.5,215.5 90,227.5 82.5,215.5 90,215.5 90,203.5 	"/>
	<rect x="78" y="203.5" class="st0" width="24" height="24"/>
</g>
<text transform="matrix(1 0 0 1 171.8329 245.5)" class="st1 st63 st67">v</text>
<text transform="matrix(0.583 0 0 0.583 182.873 253.4922)" class="st1 st66 st67">R4</text>
<text transform="matrix(1 0 0 1 38.6639 113.5001)" class="st1 st66 st67">+</text>
<text transform="matrix(0.583 0 0 0.583 47.9998 150.2921)" class="st1 st66 st67">   </text>
<text transform="matrix(1 0 0 1 38.6639 171.0997)" class="st1 st66 st67">−</text>
<text transform="matrix(1 0 0 1 26.5901 137.5001)" class="st1 st63 st67">v</text>
<text transform="matrix(0.583 0 0 0.583 37.6297 145.4923)" class="st1 st66 st67">S</text>
<text transform="matrix(1 0 0 -1 308.6642 162.5)" class="st1 st66 st67">−</text>
<text transform="matrix(0.583 0 0 -0.583 318.0002 125.708)" class="st1 st66 st67">   </text>
<text transform="matrix(1 0 0 -1 308.6642 104.9004)" class="st1 st66 st67">+</text>
<text transform="matrix(1 0 0 1 315.8332 137.5001)" class="st1 st63 st67">v</text>
<text transform="matrix(0.583 0 0 0.583 326.8732 145.4923)" class="st1 st66 st67">R3</text>
<text transform="matrix(-1 0 0 1 181.665 35.5001)" class="st1 st66 st67">−      </text>
<text transform="matrix(-0.583 0 0 0.583 126.9932 43.4923)" class="st1 st66 st67">    </text>
<text transform="matrix(-1 0 0 1 113.001 35.5001)" class="st1 st66 st67">+</text>
<text transform="matrix(1 0 0 1 123.8327 23.5001)" class="st1 st63 st67">v</text>
<text transform="matrix(0.583 0 0 0.583 134.8727 31.4923)" class="st1 st66 st67">R1</text>
<text transform="matrix(-1 0 0 1 278.916 35.5001)" class="st1 st66 st67">−       </text>
<text transform="matrix(-0.583 0 0 0.583 218.2441 43.4923)" class="st1 st66 st67">   </text>
<text transform="matrix(-1 0 0 1 207.75 35.5001)" class="st1 st66 st67">+</text>
<text transform="matrix(1 0 0 1 219.8329 23.5001)" class="st1 st63 st67">v</text>
<text transform="matrix(0.583 0 0 0.583 230.873 31.4923)" class="st1 st66 st67">R2</text>
<text transform="matrix(1 0 0 1 114.0001 95.4999)" class="st66 st68 st65">100Ω</text>
<text transform="matrix(1 0 0 1 210.0001 95.4999)" class="st66 st68 st65">200Ω</text>
<text transform="matrix(1 0 0 1 222.0001 143.5)" class="st66 st68 st65">300Ω</text>
<text transform="matrix(1 0 0 1 168.0001 185.5)" class="st66 st68 st65">400Ω</text>
<text transform="matrix(1 0 0 1 114.0001 143.5)" class="st66 st68 st65">20V</text>
<g>
	<g>
		<line class="st59" x1="174" y1="65.5" x2="187.1" y2="65.5"/>
		<g>
			<path class="st16" d="M198,65.5c-5.1,1.9-11.5,5.1-15.4,8.6l3.1-8.6l-3.1-8.6C186.5,60.4,192.9,63.6,198,65.5z"/>
		</g>
	</g>
</g>
</svg>
