<?xml version="1.0" encoding="utf-8"?>
<!-- Generator: Adobe Illustrator 19.1.0, SVG Export Plug-In . SVG Version: 6.00 Build 0)  -->
<svg version="1.1" id="Layer_1" xmlns="http://www.w3.org/2000/svg" xmlns:xlink="http://www.w3.org/1999/xlink" x="0px" y="0px"
	 width="366px" height="258px" viewBox="0 0 366 258" style="enable-background:new 0 0 366 258;" xml:space="preserve">
<style type="text/css">
	.st0{fill:none;}
	.st1{fill:#E07D10;}
	.st2{fill:none;stroke:#ED5FA6;stroke-width:7;stroke-linecap:round;stroke-linejoin:round;stroke-miterlimit:10;}
	.st3{fill:none;stroke:#AA87FF;stroke-width:7;stroke-linecap:round;stroke-linejoin:round;stroke-miterlimit:10;}
	.st4{fill:none;stroke:#FF9C39;stroke-width:7;stroke-linecap:round;stroke-linejoin:round;stroke-miterlimit:10;}
	.st5{fill:#8AF281;stroke:#8AF281;stroke-linecap:round;stroke-linejoin:round;stroke-miterlimit:10;}
	.st6{fill:#FF9C39;stroke:#E07D10;stroke-linecap:round;stroke-linejoin:round;stroke-miterlimit:10;}
	.st7{fill:none;stroke:#8AF281;stroke-width:7;stroke-linecap:round;stroke-linejoin:round;stroke-miterlimit:10;}
	.st8{fill:#ED5FA6;stroke:#ED5FA6;stroke-width:7;stroke-linecap:round;stroke-linejoin:round;stroke-miterlimit:10;}
	.st9{fill:none;stroke:#1FAB54;stroke-width:7;stroke-linecap:round;stroke-linejoin:round;stroke-miterlimit:10;}
	.st10{fill:none;stroke:#1FAB54;stroke-width:6;stroke-linecap:round;stroke-linejoin:round;stroke-miterlimit:10;}
	.st11{fill:#FF9C39;stroke:#FF9C39;stroke-width:5;stroke-linecap:round;stroke-miterlimit:10;}
	.st12{fill:none;stroke:#1FAB54;stroke-width:4;stroke-miterlimit:10;}
	.st13{fill:none;stroke:#3C91E5;stroke-width:4;stroke-miterlimit:10;}
	.st14{fill:#FFFFFF;}
	.st15{fill:none;stroke:#11ACCD;stroke-width:5;stroke-linecap:round;stroke-miterlimit:10;}
	.st16{fill:#11ACCD;}
	.st17{fill:none;stroke:#FF9C39;stroke-width:4;stroke-miterlimit:10;}
	.st18{fill:none;stroke:#63D9EA;stroke-width:7;stroke-linecap:round;stroke-miterlimit:10;}
	.st19{fill:none;stroke:#63D9EA;stroke-width:8;stroke-linecap:round;stroke-miterlimit:10;}
	.st20{fill:none;stroke:#000000;stroke-linecap:round;stroke-linejoin:round;stroke-miterlimit:10;}
	.st21{fill:none;stroke:#000000;stroke-width:1.5;stroke-linecap:round;stroke-linejoin:round;stroke-miterlimit:10;}
	.st22{fill:none;stroke:#000000;stroke-linecap:round;stroke-miterlimit:10;}
	.st23{fill:none;stroke:#000000;stroke-width:1.5;stroke-linecap:round;stroke-miterlimit:10;}
	.st24{fill:none;stroke:#000000;stroke-width:2;stroke-linecap:round;stroke-linejoin:round;stroke-miterlimit:10;}
	.st25{fill:none;stroke:#000000;stroke-width:1.5;stroke-miterlimit:10;}
	.st26{fill:none;stroke:#000000;stroke-miterlimit:10;}
	.st27{fill:none;stroke:#000000;stroke-width:2;stroke-miterlimit:10;}
	.st28{fill:none;stroke:#000000;stroke-width:2;stroke-linecap:round;stroke-miterlimit:10;}
	.st29{fill:none;stroke:#000000;stroke-linecap:round;stroke-linejoin:round;}
	.st30{stroke:#000000;stroke-linecap:round;stroke-linejoin:round;stroke-miterlimit:10;}
	.st31{fill:none;stroke:#000000;stroke-width:1.5;stroke-linejoin:round;stroke-miterlimit:10;}
	.st32{fill:none;stroke:#000000;stroke-linejoin:round;stroke-miterlimit:10;}
	.st33{clip-path:url(#SVGID_2_);fill:none;stroke:#000000;stroke-linejoin:round;stroke-miterlimit:10;}
	.st34{clip-path:url(#SVGID_2_);fill:none;stroke:#ADADEB;stroke-linejoin:round;stroke-miterlimit:10;}
	.st35{clip-path:url(#SVGID_2_);}
	.st36{stroke:#000000;stroke-linejoin:round;stroke-miterlimit:10;}
	.st37{stroke:#000000;stroke-width:3;stroke-linejoin:round;stroke-miterlimit:10;}
	.st38{fill:none;stroke:#E84D39;stroke-width:3;stroke-linecap:round;stroke-linejoin:round;}
	.st39{fill:#E84D39;}
	.st40{fill:none;stroke:#11ACCD;stroke-width:2;stroke-linecap:round;stroke-linejoin:round;}
	.st41{fill:none;stroke:#F9685D;stroke-width:2;stroke-linecap:round;stroke-linejoin:round;}
	.st42{fill:#F9685D;}
	.st43{fill:#11ACCD;stroke:#000000;stroke-linecap:round;stroke-miterlimit:10;}
	.st44{stroke:#000000;stroke-linecap:round;stroke-miterlimit:10;}
	.st45{fill:#FFFF00;stroke:#000000;stroke-linecap:round;stroke-miterlimit:10;}
	.st46{fill:#F9685D;stroke:#000000;stroke-linecap:round;stroke-miterlimit:10;}
	.st47{fill:#D6D8DA;stroke:#000000;stroke-linecap:round;stroke-miterlimit:10;}
	.st48{fill:none;stroke:#FF9C39;stroke-width:5;stroke-linecap:round;stroke-linejoin:round;stroke-miterlimit:10;}
	.st49{fill:#FF9C39;}
	.st50{fill:#AA87FF;}
	.st51{fill:#ED5FA6;}
	.st52{fill:#1FAB54;}
	.st53{fill:none;stroke:#000000;stroke-width:4;stroke-linecap:round;stroke-linejoin:round;stroke-miterlimit:10;}
	.st54{stroke:#000000;stroke-miterlimit:10;}
	.st55{stroke:#000000;stroke-width:2;stroke-linecap:round;stroke-linejoin:round;stroke-miterlimit:10;}
	.st56{fill:none;stroke:#000000;stroke-width:3;stroke-linecap:round;stroke-linejoin:round;stroke-miterlimit:10;}
	.st57{fill:none;stroke:#000000;stroke-linejoin:round;}
	.st58{fill:none;stroke:#000000;stroke-width:7;stroke-linecap:round;stroke-linejoin:round;stroke-miterlimit:10;}
	.st59{fill:none;stroke:#11ACCD;stroke-width:3;stroke-linecap:round;stroke-linejoin:round;}
	.st60{fill:none;stroke:#11ACCD;stroke-width:2;stroke-linecap:round;stroke-miterlimit:10;}
	.st61{fill:none;stroke:#E07D10;stroke-width:2;stroke-linecap:round;stroke-miterlimit:10;}
	.st62{fill:none;stroke:#11ACCD;stroke-width:2;stroke-miterlimit:10;}
	.st63{fill:none;stroke:#000000;stroke-width:3;stroke-linecap:square;stroke-miterlimit:10;}
	.st64{fill:#BE2612;}
	.st65{fill:none;stroke:#BE2612;stroke-width:2;stroke-linecap:round;stroke-linejoin:round;}
	.st66{fill:none;stroke:#21242C;stroke-linecap:round;stroke-linejoin:round;stroke-miterlimit:10;}
	.st67{font-family:'KaTeX_Main-Italic';}
	.st68{font-size:21px;}
	.st69{letter-spacing:1;}
	.st70{font-family:'KaTeX_Main-Regular';}
	.st71{font-size:24px;}
	.st72{font-size:18px;}
	.st73{fill:none;stroke:#11ACCD;stroke-width:3;stroke-linecap:round;stroke-miterlimit:10;}
	.st74{fill:#FFFFFF;stroke:#000000;stroke-miterlimit:10;}
</style>
<text transform="matrix(1 0 0 1 180.0001 90.9999)" class="st16 st67 st68 st69">i</text>
<text transform="matrix(-1 0 0 1 231.4141 246)" class="st1 st70 st71">+      </text>
<text transform="matrix(-0.583 0 0 0.583 176.7422 253.9922)" class="st1 st70 st71">     </text>
<text transform="matrix(-1 0 0 1 159.252 246)" class="st1 st70 st71">−</text>
<g>
	<circle class="st27" cx="90" cy="138" r="18"/>
	<polyline class="st22" points="96,66 90,66 90,96 90,120 	"/>
	<polyline class="st20" points="132,204 90,204 90,180 90,156 	"/>
	<line class="st25" x1="90" y1="124.5" x2="90" y2="136.5"/>
	<line class="st25" x1="84" y1="130.5" x2="96" y2="130.5"/>
	<line class="st25" x1="84" y1="148.5" x2="96" y2="148.5"/>
</g>
<g>
	<circle cx="90" cy="204" r="3"/>
	<rect x="84" y="198" class="st0" width="12" height="12"/>
</g>
<g>
	<g>
		<path class="st61" d="M66,174c-3.7-7-6.2-20.5-6.2-36c0-11.4,1.4-21.8,3.6-29.3"/>
		<g>
			<path class="st1" d="M66,102c0,3.6,0.5,8.4,1.7,11.6l-4.6-3.9l-6.1-0.1C60.1,107.9,63.6,104.7,66,102z"/>
		</g>
	</g>
</g>
<g>
	<g>
		<path class="st61" d="M300,174c3.7-7,6.2-20.5,6.2-36c0-11.4-1.4-21.8-3.6-29.3"/>
		<g>
			<path class="st1" d="M300,102c2.4,2.7,5.9,5.9,9,7.6l-6.1,0.1l-4.6,3.9C299.5,110.4,300,105.6,300,102z"/>
		</g>
	</g>
</g>
<g>
	<g>
		<path class="st61" d="M168,48c-6.4-3.7-18.8-6.2-33-6.2c-10.2,0-19.5,1.3-26.3,3.4"/>
		<g>
			<path class="st1" d="M102,48c2.7-2.4,5.8-6,7.4-9.1l0.2,6.1l4,4.5C110.4,48.3,105.6,47.9,102,48z"/>
		</g>
	</g>
</g>
<g>
	<g>
		<path class="st61" d="M215.3,224.6c-7.5,2.2-17.8,3.6-29.3,3.6c-15.5,0-29-2.5-36-6.2"/>
		<g>
			<path class="st1" d="M222,222c-3.6,0-8.4-0.5-11.6-1.7l3.9,4.6l0.1,6.1C216.1,227.9,219.3,224.4,222,222z"/>
		</g>
	</g>
</g>
<g>
	<g>
		<path class="st61" d="M264,48c-6.4-3.7-18.8-6.2-33-6.2c-10.2,0-19.5,1.3-26.3,3.4"/>
		<g>
			<path class="st1" d="M198,48c2.7-2.4,5.8-6,7.4-9.1l0.2,6.1l4,4.5C206.4,48.3,201.6,47.9,198,48z"/>
		</g>
	</g>
</g>
<g>
	<line class="st20" x1="161.4" y1="66" x2="180" y2="66"/>
	<polyline class="st24" points="114.6,66 118.5,57 126.3,75 134.1,57 141.9,75 149.7,57 157.5,75 161.4,66 	"/>
	<line class="st20" x1="96" y1="66" x2="114.6" y2="66"/>
	<rect x="96" y="54" class="st0" width="84" height="24"/>
</g>
<g>
	<line class="st20" x1="257.4" y1="66" x2="276" y2="66"/>
	<polyline class="st24" points="210.6,66 214.5,57 222.3,75 230.1,57 237.9,75 245.7,57 253.5,75 257.4,66 	"/>
	<line class="st20" x1="192" y1="66" x2="210.6" y2="66"/>
	<rect x="192" y="54" class="st0" width="84" height="24"/>
</g>
<g>
	<line class="st20" x1="208.8" y1="204" x2="227.4" y2="204"/>
	<polyline class="st24" points="162,204 165.9,195 173.7,213 181.5,195 189.3,213 197.1,195 204.9,213 208.8,204 	"/>
	<line class="st20" x1="132" y1="204" x2="162" y2="204"/>
	<rect x="132" y="192" class="st0" width="95.4" height="24"/>
</g>
<g>
	<line class="st20" x1="282" y1="114.6" x2="282" y2="96"/>
	<polyline class="st24" points="282,161.4 273,157.5 291,149.7 273,141.9 291,134.1 273,126.3 291,118.5 282,114.6 	"/>
	<line class="st20" x1="282" y1="180" x2="282" y2="161.4"/>
	<rect x="270" y="96" class="st0" width="24" height="84"/>
</g>
<line class="st22" x1="180" y1="66" x2="192" y2="66"/>
<polyline class="st22" points="276,66 282,66 282,96 "/>
<polyline class="st22" points="282,180 282,204 227.4,204 "/>
<g>
	<polyline class="st20" points="90,216 97.5,216 97.5,216 97.5,216 90,228 82.5,216 90,216 90,204 	"/>
	<rect x="78" y="204" class="st0" width="24" height="24"/>
</g>
<text transform="matrix(1 0 0 1 172.4999 252)" class="st1 st70 st72">8 V</text>
<text transform="matrix(1 0 0 1 32.6639 114.0001)" class="st1 st70 st71">+</text>
<text transform="matrix(0.583 0 0 0.583 41.9998 150.7921)" class="st1 st70 st71">   </text>
<text transform="matrix(1 0 0 1 32.6639 171.5997)" class="st1 st70 st71">−</text>
<text transform="matrix(1 0 0 1 11.9998 144.0001)" class="st1 st70 st72">20 V</text>
<text transform="matrix(1 0 0 -1 314.6642 163)" class="st1 st70 st71">−</text>
<text transform="matrix(0.583 0 0 -0.583 324.0002 126.208)" class="st1 st70 st71">   </text>
<text transform="matrix(1 0 0 -1 314.6642 105.4004)" class="st1 st70 st71">+</text>
<text transform="matrix(1 0 0 1 316.5002 144.0001)" class="st1 st70 st72">6 V</text>
<text transform="matrix(-1 0 0 1 181.665 36.0001)" class="st1 st70 st71">−      </text>
<text transform="matrix(-0.583 0 0 0.583 126.9932 43.9923)" class="st1 st70 st71">    </text>
<text transform="matrix(-1 0 0 1 113.001 36.0001)" class="st1 st70 st71">+</text>
<text transform="matrix(1 0 0 1 130.5002 30.0001)" class="st1 st70 st72">2 V</text>
<text transform="matrix(-1 0 0 1 278.916 36.0001)" class="st1 st70 st71">−       </text>
<text transform="matrix(-0.583 0 0 0.583 218.2441 43.9923)" class="st1 st70 st71">   </text>
<text transform="matrix(-1 0 0 1 207.75 36.0001)" class="st1 st70 st71">+</text>
<text transform="matrix(1 0 0 1 220.4999 30.0001)" class="st1 st70 st72">4 V</text>
<text transform="matrix(1 0 0 1 114.0001 95.9999)" class="st70 st72 st69">100Ω</text>
<text transform="matrix(1 0 0 1 210.0001 95.9999)" class="st70 st72 st69">200Ω</text>
<text transform="matrix(1 0 0 1 222.0001 144)" class="st70 st72 st69">300Ω</text>
<text transform="matrix(1 0 0 1 168.0001 186)" class="st70 st72 st69">400Ω</text>
<text transform="matrix(1 0 0 1 114.0001 144)" class="st70 st72 st69">20V</text>
<g>
	<g>
		<line class="st59" x1="174" y1="66" x2="187.1" y2="66"/>
		<g>
			<path class="st16" d="M198,66c-5.1,1.9-11.5,5.1-15.4,8.6l3.1-8.6l-3.1-8.6C186.5,60.9,192.9,64.1,198,66z"/>
		</g>
	</g>
</g>
<text transform="matrix(1 0 0 1 72 204)" class="st52 st70 st72 st69">a</text>
<text transform="matrix(1 0 0 1 72 78)" class="st52 st70 st72 st69">b</text>
<text transform="matrix(1 0 0 1 180 54)" class="st52 st70 st72 st69">c</text>
<text transform="matrix(1 0 0 1 288 78)" class="st52 st70 st72 st69">d</text>
<text transform="matrix(1 0 0 1 288 204)" class="st52 st70 st72 st69">e</text>
</svg>
