<?xml version="1.0" encoding="utf-8"?>
<!-- Generator: Adobe Illustrator 19.1.0, SVG Export Plug-In . SVG Version: 6.00 Build 0)  -->
<svg version="1.1" id="Layer_1" xmlns="http://www.w3.org/2000/svg" xmlns:xlink="http://www.w3.org/1999/xlink" x="0px" y="0px"
	 width="480px" height="192px" viewBox="0 0 480 192" style="enable-background:new 0 0 480 192;" xml:space="preserve">
<style type="text/css">
	.st0{fill:none;stroke:#1FAB54;stroke-width:6;stroke-linecap:round;stroke-miterlimit:10;}
	.st1{fill:none;stroke:#FF9C39;stroke-width:6;stroke-linecap:round;stroke-miterlimit:10;}
	.st2{fill:none;stroke:#FF9C39;stroke-width:6;stroke-linecap:round;stroke-linejoin:round;stroke-miterlimit:10;}
	.st3{fill:none;stroke:#11ACCD;stroke-width:5;stroke-linecap:round;stroke-linejoin:round;stroke-miterlimit:10;}
	.st4{fill:none;stroke:#1FAB54;stroke-width:6;stroke-linecap:round;stroke-linejoin:round;stroke-miterlimit:10;}
	.st5{fill:none;stroke:#BABEC2;stroke-width:2;stroke-linecap:round;stroke-miterlimit:10;}
	.st6{fill:none;stroke:#ED5FA6;stroke-width:4;stroke-linecap:round;stroke-miterlimit:10;}
	.st7{fill:#ED5FA6;}
	.st8{fill:none;stroke:#1FAB54;stroke-width:4;stroke-linecap:round;stroke-miterlimit:10;}
	.st9{fill:#1FAB54;}
	.st10{fill:none;stroke:#11ACCD;stroke-width:4;stroke-linecap:round;stroke-miterlimit:10;}
	.st11{fill:#11ACCD;}
	.st12{fill:none;stroke:#FF9C39;stroke-width:4;stroke-linecap:round;stroke-miterlimit:10;}
	.st13{fill:#FF9C39;}
	.st14{fill:none;stroke:#000000;stroke-linecap:round;stroke-linejoin:round;stroke-miterlimit:10;}
	.st15{fill:none;stroke:#000000;stroke-width:1.5;stroke-linecap:round;stroke-linejoin:round;stroke-miterlimit:10;}
	.st16{fill:none;stroke:#000000;stroke-linecap:round;stroke-miterlimit:10;}
	.st17{fill:none;stroke:#000000;stroke-width:1.5;stroke-linecap:round;stroke-miterlimit:10;}
	.st18{fill:none;stroke:#000000;stroke-width:2;stroke-linecap:round;stroke-linejoin:round;stroke-miterlimit:10;}
	.st19{fill:none;stroke:#000000;stroke-width:1.5;stroke-miterlimit:10;}
	.st20{fill:none;stroke:#000000;stroke-miterlimit:10;}
	.st21{fill:none;stroke:#000000;stroke-width:2;stroke-miterlimit:10;}
	.st22{fill:none;stroke:#000000;stroke-width:2;stroke-linecap:round;stroke-miterlimit:10;}
	.st23{fill:none;stroke:#000000;stroke-linecap:round;stroke-linejoin:round;}
	.st24{fill:none;}
	.st25{stroke:#000000;stroke-linecap:round;stroke-linejoin:round;stroke-miterlimit:10;}
	.st26{fill:none;stroke:#000000;stroke-width:1.5;stroke-linejoin:round;stroke-miterlimit:10;}
	.st27{fill:none;stroke:#000000;stroke-linejoin:round;stroke-miterlimit:10;}
	.st28{clip-path:url(#SVGID_2_);fill:none;stroke:#000000;stroke-linejoin:round;stroke-miterlimit:10;}
	.st29{clip-path:url(#SVGID_2_);fill:none;stroke:#ADADEB;stroke-linejoin:round;stroke-miterlimit:10;}
	.st30{clip-path:url(#SVGID_2_);}
	.st31{stroke:#000000;stroke-linejoin:round;stroke-miterlimit:10;}
	.st32{stroke:#000000;stroke-width:3;stroke-linejoin:round;stroke-miterlimit:10;}
	.st33{fill:none;stroke:#000000;stroke-linejoin:round;}
	.st34{fill:#FFFFFF;stroke:#000000;stroke-miterlimit:10;}
	.st35{font-family:'KaTeX_Main-Regular';}
	.st36{font-size:18px;}
	.st37{letter-spacing:1;}
	.st38{fill:#E07D10;}
	.st39{font-family:'KaTeX_Main-Italic';}
	.st40{fill:none;stroke:#11ACCD;stroke-width:3;stroke-linecap:round;stroke-miterlimit:10;}
	.st41{fill:none;stroke:#E07D10;stroke-width:2;stroke-linecap:round;stroke-miterlimit:10;}
	.st42{font-size:21px;}
	.st43{fill:none;stroke:#FF9C39;stroke-width:3;stroke-linecap:round;stroke-miterlimit:10;}
	.st44{fill:none;stroke:#FFBB71;stroke-width:2;stroke-linecap:round;stroke-miterlimit:10;}
	.st45{fill:#FFBB71;}
	.st46{fill:none;stroke:#000000;stroke-width:2;stroke-linecap:round;stroke-miterlimit:10;stroke-dasharray:6.1241,6.1241;}
	.st47{fill:#66AFE9;}
	.st48{fill:none;stroke:#66AFE9;stroke-miterlimit:10;}
	.st49{fill:none;stroke:#11ACCD;stroke-width:1.5;stroke-miterlimit:10;}
	.st50{fill:none;stroke:#11ACCD;stroke-width:4;stroke-linecap:round;stroke-linejoin:round;stroke-miterlimit:10;}
	.st51{fill:#CA337C;}
</style>
<g>
	<circle class="st21" cx="90.2" cy="102" r="18"/>
	<polyline class="st16" points="90.2,84 90.2,60 90.2,42 108.2,42 	"/>
	<polyline class="st14" points="90.2,120 90,162 389.8,162 	"/>
	<line class="st19" x1="90.2" y1="88.5" x2="90.2" y2="100.5"/>
	<line class="st19" x1="84.2" y1="94.5" x2="96.2" y2="94.5"/>
	<line class="st19" x1="84.2" y1="112.5" x2="96.2" y2="112.5"/>
</g>
<g>
	<g>
		<g>
			<line class="st22" x1="390" y1="115.5" x2="390" y2="95.6"/>
			<g>
				<polygon points="396,97.4 390,87 384,97.4 				"/>
			</g>
		</g>
	</g>
	<circle class="st21" cx="390" cy="102" r="18"/>
	<polyline class="st16" points="209.8,42 390,42 390,60 390,84 	"/>
	<line class="st14" x1="390" y1="120" x2="390" y2="162"/>
</g>
<g>
	<line class="st14" x1="185.4" y1="42" x2="209.8" y2="42"/>
	<polyline class="st18" points="138.6,42 142.5,33 150.3,51 158.1,33 165.9,51 173.7,33 181.5,51 185.4,42 	"/>
	<line class="st14" x1="108.2" y1="42" x2="138.6" y2="42"/>
	<polygon class="st24" points="209.8,54 210,30 108.2,30 108.2,54 	"/>
</g>
<g>
	<line class="st14" x1="234.2" y1="78.6" x2="234.2" y2="60"/>
	<polyline class="st18" points="234.2,125.4 225.2,121.5 243.2,113.7 225.2,105.9 243.2,98.1 225.2,90.3 243.2,82.5 234.2,78.6 	"/>
	<line class="st14" x1="234.2" y1="162" x2="234.2" y2="125.4"/>
	<rect x="222.2" y="60" class="st24" width="24" height="102"/>
</g>
<g>
	<line class="st14" x1="312" y1="78.6" x2="312" y2="60"/>
	<polyline class="st18" points="312,125.4 303,121.5 321,113.7 303,105.9 321,98.1 303,90.3 321,82.5 312,78.6 	"/>
	<line class="st14" x1="312" y1="162" x2="312" y2="125.4"/>
	<rect x="300" y="60" class="st24" width="24" height="102"/>
</g>
<g>
	<polyline class="st14" points="90,174 97.5,174 97.5,174 97.5,174 90,186 82.5,174 90,174 90,162 	"/>
	<rect x="78" y="162" class="st24" width="24" height="24"/>
</g>
<g>
	<circle class="st25" cx="234" cy="42" r="1.5"/>
	<rect x="228" y="36" class="st24" width="12" height="12"/>
</g>
<g>
	<circle class="st25" cx="312" cy="42" r="1.5"/>
	<rect x="306" y="36" class="st24" width="12" height="12"/>
</g>
<g>
	<circle class="st25" cx="312" cy="162" r="1.5"/>
	<rect x="306" y="156" class="st24" width="12" height="12"/>
</g>
<g>
	<circle class="st25" cx="234.2" cy="162" r="1.5"/>
	<rect x="228.2" y="156" class="st24" width="12" height="12"/>
</g>
<g>
	<circle class="st25" cx="90" cy="162" r="1.5"/>
	<rect x="84" y="156" class="st24" width="12" height="12"/>
</g>
<line class="st16" x1="312" y1="60" x2="312" y2="42"/>
<line class="st16" x1="234.2" y1="60" x2="234.2" y2="42"/>
<text transform="matrix(1 0 0 1 114 108.0001)"><tspan x="0" y="0" class="st35 st36">14</tspan><tspan x="18" y="0" class="st35 st36 st37">0</tspan><tspan x="28.8" y="0" class="st35 st36">V</tspan></text>
<text transform="matrix(1 0 0 1 144 72.0002)"><tspan x="0" y="0" class="st35 st36">2</tspan><tspan x="9" y="0" class="st35 st36 st37">0</tspan><tspan x="19.8" y="0" class="st35 st36">Ω</tspan></text>
<text transform="matrix(1 0 0 1 192.0002 108.0001)"><tspan x="0" y="0" class="st35 st36 st37">6</tspan><tspan x="10.8" y="0" class="st35 st36">Ω</tspan></text>
<text transform="matrix(1 0 0 1 330 108.0001)"><tspan x="0" y="0" class="st35 st36 st37">5</tspan><tspan x="10.8" y="0" class="st35 st36">Ω</tspan></text>
<text transform="matrix(1 0 0 1 414 108.0001)"><tspan x="0" y="0" class="st35 st36">1</tspan><tspan x="9" y="0" class="st35 st36 st37">8</tspan><tspan x="19.8" y="0" class="st35 st36">A</tspan></text>
<text transform="matrix(1 0 0 1 30.0002 102.0001)" class="st38 st39 st36">v</text>
<text transform="matrix(0.583 0 0 0.583 38.2799 107.9942)" class="st38 st35 st36">VS</text>
<text transform="matrix(1 0 0 1 240.1862 60.0002)" class="st11 st39 st36">i</text>
<text transform="matrix(0.583 0 0 0.583 245.7121 65.9943)" class="st11 st35 st36">2</text>
<text transform="matrix(1 0 0 1 317.9999 60.0002)" class="st11 st39 st36">i</text>
<text transform="matrix(0.583 0 0 0.583 323.5258 65.9943)" class="st11 st35 st36">3</text>
<text transform="matrix(1 0 0 1 395.9998 60.0002)" class="st11 st39 st36">i</text>
<text transform="matrix(0.583 0 0 0.583 401.5257 65.9943)" class="st11 st35 st36">IS</text>
<g>
	<g>
		<line class="st40" x1="96" y1="42" x2="104.9" y2="42"/>
		<g>
			<path class="st11" d="M114,42c-4.3,1.6-9.5,4.3-12.8,7.1l2.6-7.1l-2.6-7.1C104.5,37.7,109.7,40.4,114,42z"/>
		</g>
	</g>
</g>
<g>
	<g>
		<line class="st40" x1="234.2" y1="51" x2="234.2" y2="59.9"/>
		<g>
			<path class="st11" d="M234.2,69c-1.6-4.3-4.3-9.5-7.1-12.8l7.1,2.6l7.1-2.6C238.5,59.5,235.8,64.7,234.2,69z"/>
		</g>
	</g>
</g>
<g>
	<g>
		<line class="st40" x1="312" y1="48" x2="312" y2="56.9"/>
		<g>
			<path class="st11" d="M312,66c-1.6-4.3-4.3-9.5-7.1-12.8l7.1,2.6l7.1-2.6C316.3,56.5,313.6,61.7,312,66z"/>
		</g>
	</g>
</g>
<g>
	<g>
		<line class="st40" x1="390" y1="66" x2="390" y2="57.1"/>
		<g>
			<path class="st11" d="M390,48c1.6,4.3,4.3,9.5,7.1,12.8l-7.1-2.6l-7.1,2.6C385.7,57.5,388.4,52.3,390,48z"/>
		</g>
	</g>
</g>
<text transform="matrix(1 0 0 1 108.0002 60)" class="st11 st39 st36">i</text>
<text transform="matrix(0.583 0 0 0.583 113.5261 65.9941)" class="st11 st35 st36">1</text>
<g>
	<g>
		<path class="st41" d="M192,30c-6.4-3.7-18.8-6.2-33-6.2c-10.2,0-19.5,1.3-26.3,3.4"/>
		<g>
			<path class="st38" d="M126,30c2.7-2.4,5.8-6,7.4-9.1l0.2,6.1l4,4.5C134.4,30.3,129.6,29.9,126,30z"/>
		</g>
	</g>
</g>
<text transform="matrix(1 0 0 1 311.9998 35.9999)" class="st9 st35 st36 st37">b</text>
<text transform="matrix(1 0 0 1 71.9998 41.9999)" class="st9 st35 st36 st37">a</text>
<text transform="matrix(1 0 0 1 311.9998 179.9998)" class="st9 st35 st36 st37">c</text>
<text transform="matrix(1 0 0 1 276.0002 102.0001)" class="st38 st39 st36">v</text>
<text transform="matrix(0.583 0 0 0.583 284.28 107.9943)" class="st38 st35 st36">2</text>
<text transform="matrix(1 0 0 1 276.0001 60.0001)"><tspan x="0" y="0" class="st38 st35 st42">+</tspan><tspan x="0" y="100.8" class="st38 st35 st42">−</tspan></text>
<text transform="matrix(1 0 0 1 48.0001 60.0001)"><tspan x="0" y="0" class="st38 st35 st42">+</tspan><tspan x="0" y="100.8" class="st38 st35 st42">−</tspan></text>
<g>
	<g>
		<path class="st41" d="M264,156c3.7-10.5,6.2-30.8,6.2-54c0-18.8-1.6-35.7-4.2-47"/>
		<g>
			<path class="st38" d="M264,48c2.1,3,5.3,6.5,8.2,8.4l-6-0.5l-5,3.5C262.7,56.3,263.7,51.6,264,48z"/>
		</g>
	</g>
</g>
<g>
	<g>
		<path class="st41" d="M66,150c-3.7-8.8-6.2-25.6-6.2-45c0-15.1,1.5-28.7,3.9-38.1"/>
		<g>
			<path class="st38" d="M66,60c0.2,3.6,1,8.3,2.3,11.5l-4.8-3.7L57.5,68C60.4,66.2,63.8,62.9,66,60z"/>
		</g>
	</g>
</g>
<text transform="matrix(1 0 0 1 156 12.0002)" class="st38 st39 st36">v</text>
<text transform="matrix(0.583 0 0 0.583 164.2798 17.9944)" class="st38 st35 st36">1</text>
<text transform="matrix(-1 0 0 1 205.4595 18.0001)" class="st38 st35 st42">−        </text>
<text transform="matrix(-0.583 0 0 0.583 147.1216 24.9933)" class="st38 st35 st42">    </text>
<text transform="matrix(-1 0 0 1 134.8784 18.0001)" class="st38 st35 st42">+</text>
</svg>
