<?xml version="1.0" encoding="utf-8"?>
<!-- Generator: Adobe Illustrator 19.1.0, SVG Export Plug-In . SVG Version: 6.00 Build 0)  -->
<svg version="1.1" id="Layer_1" xmlns="http://www.w3.org/2000/svg" xmlns:xlink="http://www.w3.org/1999/xlink" x="0px" y="0px"
	 width="480px" height="192px" viewBox="0 0 480 192" style="enable-background:new 0 0 480 192;" xml:space="preserve">
<style type="text/css">
	.st0{fill:none;stroke:#1FAB54;stroke-width:6;stroke-linecap:round;stroke-miterlimit:10;}
	.st1{fill:none;stroke:#FF9C39;stroke-width:6;stroke-linecap:round;stroke-miterlimit:10;}
	.st2{fill:none;stroke:#FF9C39;stroke-width:6;stroke-linecap:round;stroke-linejoin:round;stroke-miterlimit:10;}
	.st3{fill:none;stroke:#11ACCD;stroke-width:5;stroke-linecap:round;stroke-linejoin:round;stroke-miterlimit:10;}
	.st4{fill:none;stroke:#1FAB54;stroke-width:6;stroke-linecap:round;stroke-linejoin:round;stroke-miterlimit:10;}
	.st5{fill:none;stroke:#BABEC2;stroke-width:2;stroke-linecap:round;stroke-miterlimit:10;}
	.st6{fill:none;stroke:#ED5FA6;stroke-width:4;stroke-linecap:round;stroke-miterlimit:10;}
	.st7{fill:#ED5FA6;}
	.st8{fill:none;stroke:#1FAB54;stroke-width:4;stroke-linecap:round;stroke-miterlimit:10;}
	.st9{fill:#1FAB54;}
	.st10{fill:none;stroke:#11ACCD;stroke-width:4;stroke-linecap:round;stroke-miterlimit:10;}
	.st11{fill:#11ACCD;}
	.st12{fill:none;stroke:#FF9C39;stroke-width:4;stroke-linecap:round;stroke-miterlimit:10;}
	.st13{fill:#FF9C39;}
	.st14{fill:none;stroke:#000000;stroke-linecap:round;stroke-linejoin:round;stroke-miterlimit:10;}
	.st15{fill:none;stroke:#000000;stroke-width:1.5;stroke-linecap:round;stroke-linejoin:round;stroke-miterlimit:10;}
	.st16{fill:none;stroke:#000000;stroke-linecap:round;stroke-miterlimit:10;}
	.st17{fill:none;stroke:#000000;stroke-width:1.5;stroke-linecap:round;stroke-miterlimit:10;}
	.st18{fill:none;stroke:#000000;stroke-width:2;stroke-linecap:round;stroke-linejoin:round;stroke-miterlimit:10;}
	.st19{fill:none;stroke:#000000;stroke-width:1.5;stroke-miterlimit:10;}
	.st20{fill:none;stroke:#000000;stroke-miterlimit:10;}
	.st21{fill:none;stroke:#000000;stroke-width:2;stroke-miterlimit:10;}
	.st22{fill:none;stroke:#000000;stroke-width:2;stroke-linecap:round;stroke-miterlimit:10;}
	.st23{fill:none;stroke:#000000;stroke-linecap:round;stroke-linejoin:round;}
	.st24{fill:none;}
	.st25{stroke:#000000;stroke-linecap:round;stroke-linejoin:round;stroke-miterlimit:10;}
	.st26{fill:none;stroke:#000000;stroke-width:1.5;stroke-linejoin:round;stroke-miterlimit:10;}
	.st27{fill:none;stroke:#000000;stroke-linejoin:round;stroke-miterlimit:10;}
	.st28{clip-path:url(#SVGID_2_);fill:none;stroke:#000000;stroke-linejoin:round;stroke-miterlimit:10;}
	.st29{clip-path:url(#SVGID_2_);fill:none;stroke:#ADADEB;stroke-linejoin:round;stroke-miterlimit:10;}
	.st30{clip-path:url(#SVGID_2_);}
	.st31{stroke:#000000;stroke-linejoin:round;stroke-miterlimit:10;}
	.st32{stroke:#000000;stroke-width:3;stroke-linejoin:round;stroke-miterlimit:10;}
	.st33{fill:none;stroke:#000000;stroke-linejoin:round;}
	.st34{fill:#FFFFFF;stroke:#000000;stroke-miterlimit:10;}
	.st35{fill:#E07D10;}
	.st36{fill:none;stroke:#11ACCD;stroke-width:3;stroke-linecap:round;stroke-miterlimit:10;}
	.st37{fill:none;stroke:#E07D10;stroke-width:2;stroke-linecap:round;stroke-miterlimit:10;}
	.st38{font-family:'KaTeX_Main-Regular';}
	.st39{font-size:18px;}
	.st40{letter-spacing:1;}
	.st41{fill:none;stroke:#FF9C39;stroke-width:3;stroke-linecap:round;stroke-miterlimit:10;}
	.st42{fill:none;stroke:#FFBB71;stroke-width:2;stroke-linecap:round;stroke-miterlimit:10;}
	.st43{fill:#FFBB71;}
	.st44{fill:none;stroke:#000000;stroke-width:2;stroke-linecap:round;stroke-miterlimit:10;stroke-dasharray:6.1241,6.1241;}
	.st45{fill:#66AFE9;}
	.st46{fill:none;stroke:#66AFE9;stroke-miterlimit:10;}
	.st47{fill:none;stroke:#11ACCD;stroke-width:1.5;stroke-miterlimit:10;}
	.st48{fill:none;stroke:#11ACCD;stroke-width:4;stroke-linecap:round;stroke-linejoin:round;stroke-miterlimit:10;}
	.st49{fill:#CA337C;}
</style>
<g>
	<circle class="st21" cx="90.2" cy="102" r="18"/>
	<polyline class="st16" points="90.2,84 90.2,60 90.2,42 108.2,42 	"/>
	<polyline class="st14" points="90.2,120 90,162 389.8,162 	"/>
	<line class="st19" x1="90.2" y1="88.5" x2="90.2" y2="100.5"/>
	<line class="st19" x1="84.2" y1="94.5" x2="96.2" y2="94.5"/>
	<line class="st19" x1="84.2" y1="112.5" x2="96.2" y2="112.5"/>
</g>
<g>
	<g>
		<g>
			<line class="st22" x1="390" y1="115.5" x2="390" y2="95.6"/>
			<g>
				<polygon points="396,97.4 390,87 384,97.4 				"/>
			</g>
		</g>
	</g>
	<circle class="st21" cx="390" cy="102" r="18"/>
	<polyline class="st16" points="209.8,42 390,42 390,60 390,84 	"/>
	<line class="st14" x1="390" y1="120" x2="390" y2="162"/>
</g>
<g>
	<line class="st14" x1="185.4" y1="42" x2="209.8" y2="42"/>
	<polyline class="st18" points="138.6,42 142.5,33 150.3,51 158.1,33 165.9,51 173.7,33 181.5,51 185.4,42 	"/>
	<line class="st14" x1="108.2" y1="42" x2="138.6" y2="42"/>
	<polygon class="st24" points="209.8,54 210,30 108.2,30 108.2,54 	"/>
</g>
<g>
	<line class="st14" x1="234.2" y1="78.6" x2="234.2" y2="60"/>
	<polyline class="st18" points="234.2,125.4 225.2,121.5 243.2,113.7 225.2,105.9 243.2,98.1 225.2,90.3 243.2,82.5 234.2,78.6 	"/>
	<line class="st14" x1="234.2" y1="162" x2="234.2" y2="125.4"/>
	<rect x="222.2" y="60" class="st24" width="24" height="102"/>
</g>
<g>
	<line class="st14" x1="312" y1="78.6" x2="312" y2="60"/>
	<polyline class="st18" points="312,125.4 303,121.5 321,113.7 303,105.9 321,98.1 303,90.3 321,82.5 312,78.6 	"/>
	<line class="st14" x1="312" y1="162" x2="312" y2="125.4"/>
	<rect x="300" y="60" class="st24" width="24" height="102"/>
</g>
<g>
	<polyline class="st14" points="90,174 97.5,174 97.5,174 97.5,174 90,186 82.5,174 90,174 90,162 	"/>
	<rect x="78" y="162" class="st24" width="24" height="24"/>
</g>
<g>
	<circle class="st25" cx="234" cy="42" r="1.5"/>
	<rect x="228" y="36" class="st24" width="12" height="12"/>
</g>
<g>
	<circle class="st25" cx="312" cy="42" r="1.5"/>
	<rect x="306" y="36" class="st24" width="12" height="12"/>
</g>
<g>
	<circle class="st25" cx="312" cy="162" r="1.5"/>
	<rect x="306" y="156" class="st24" width="12" height="12"/>
</g>
<g>
	<circle class="st25" cx="234.2" cy="162" r="1.5"/>
	<rect x="228.2" y="156" class="st24" width="12" height="12"/>
</g>
<g>
	<circle class="st25" cx="90" cy="162" r="1.5"/>
	<rect x="84" y="156" class="st24" width="12" height="12"/>
</g>
<line class="st16" x1="312" y1="60" x2="312" y2="42"/>
<line class="st16" x1="234.2" y1="60" x2="234.2" y2="42"/>
<text transform="matrix(1 0 0 1 113.9999 108.0001)"><tspan x="0" y="0" class="st38 st39">14</tspan><tspan x="18" y="0" class="st38 st39 st40">0</tspan><tspan x="28.8" y="0" class="st38 st39">V</tspan></text>
<text transform="matrix(1 0 0 1 144 72.0002)"><tspan x="0" y="0" class="st38 st39">2</tspan><tspan x="9" y="0" class="st38 st39 st40">0</tspan><tspan x="19.8" y="0" class="st38 st39">Ω</tspan></text>
<text transform="matrix(1 0 0 1 191.9999 108.0001)"><tspan x="0" y="0" class="st38 st39 st40">6</tspan><tspan x="10.8" y="0" class="st38 st39">Ω</tspan></text>
<text transform="matrix(1 0 0 1 330.0002 108.0001)"><tspan x="0" y="0" class="st38 st39 st40">5</tspan><tspan x="10.8" y="0" class="st38 st39">Ω</tspan></text>
<text transform="matrix(1 0 0 1 414.0002 108.0001)"><tspan x="0" y="0" class="st38 st39">1</tspan><tspan x="9" y="0" class="st38 st39 st40">8</tspan><tspan x="19.8" y="0" class="st38 st39">A</tspan></text>
</svg>
