<?xml version="1.0" encoding="utf-8"?>
<!-- Generator: Adobe Illustrator 19.1.0, SVG Export Plug-In . SVG Version: 6.00 Build 0)  -->
<svg version="1.1" id="Layer_1" xmlns="http://www.w3.org/2000/svg" xmlns:xlink="http://www.w3.org/1999/xlink" x="0px" y="0px"
	 width="288px" height="270px" viewBox="0 0 288 270" style="enable-background:new 0 0 288 270;" xml:space="preserve">
<style type="text/css">
	.st0{fill:none;stroke:#000000;stroke-linecap:round;stroke-linejoin:round;stroke-miterlimit:10;}
	.st1{fill:none;stroke:#BABEC2;stroke-linecap:round;stroke-linejoin:round;stroke-miterlimit:10;}
	.st2{fill:none;stroke:#BABEC2;stroke-width:2;stroke-linecap:round;stroke-linejoin:round;stroke-miterlimit:10;}
	.st3{fill:none;}
	.st4{fill:none;stroke:#000000;stroke-width:1.5;stroke-linecap:round;stroke-linejoin:round;stroke-miterlimit:10;}
	.st5{fill:none;stroke:#000000;stroke-linecap:round;stroke-miterlimit:10;}
	.st6{fill:none;stroke:#000000;stroke-width:1.5;stroke-linecap:round;stroke-miterlimit:10;}
	.st7{fill:none;stroke:#000000;stroke-width:2;stroke-linecap:round;stroke-linejoin:round;stroke-miterlimit:10;}
	.st8{fill:none;stroke:#000000;stroke-width:1.5;stroke-miterlimit:10;}
	.st9{fill:none;stroke:#000000;stroke-miterlimit:10;}
	.st10{fill:none;stroke:#000000;stroke-width:2;stroke-miterlimit:10;}
	.st11{fill:none;stroke:#000000;stroke-width:2;stroke-linecap:round;stroke-miterlimit:10;}
	.st12{fill:none;stroke:#000000;stroke-linecap:round;stroke-linejoin:round;}
	.st13{stroke:#000000;stroke-linecap:round;stroke-linejoin:round;stroke-miterlimit:10;}
	.st14{fill:none;stroke:#000000;stroke-width:1.5;stroke-linejoin:round;stroke-miterlimit:10;}
	.st15{fill:none;stroke:#000000;stroke-linejoin:round;stroke-miterlimit:10;}
	.st16{clip-path:url(#SVGID_2_);fill:none;stroke:#000000;stroke-linejoin:round;stroke-miterlimit:10;}
	.st17{clip-path:url(#SVGID_2_);fill:none;stroke:#ADADEB;stroke-linejoin:round;stroke-miterlimit:10;}
	.st18{clip-path:url(#SVGID_2_);}
	.st19{stroke:#000000;stroke-linejoin:round;stroke-miterlimit:10;}
	.st20{stroke:#000000;stroke-width:3;stroke-linejoin:round;stroke-miterlimit:10;}
	.st21{fill:none;stroke:#000000;stroke-linejoin:round;}
	.st22{opacity:0.5;fill:#CCFAFF;}
	.st23{fill:none;stroke:#0C7F99;stroke-miterlimit:10;}
	.st24{fill:#0C7F99;}
	.st25{fill:none;stroke:#11ACCD;stroke-width:3;stroke-linecap:round;stroke-miterlimit:10;}
	.st26{fill:#11ACCD;}
	.st27{fill:none;stroke:#01D1C1;stroke-width:2;stroke-miterlimit:10;}
	.st28{fill:none;stroke:#01D1C1;stroke-linecap:round;stroke-miterlimit:10;}
	.st29{fill:none;stroke:#01D1C1;stroke-linecap:round;stroke-linejoin:round;stroke-miterlimit:10;}
	.st30{fill:none;stroke:#01D1C1;stroke-width:1.5;stroke-miterlimit:10;}
	.st31{fill:none;stroke:#01D1C1;stroke-width:2;stroke-linecap:round;stroke-linejoin:round;stroke-miterlimit:10;}
	.st32{fill:#01D1C1;stroke:#01D1C1;stroke-linecap:round;stroke-linejoin:round;stroke-miterlimit:10;}
	.st33{fill:none;stroke:#01D1C1;stroke-miterlimit:10;}
	.st34{fill:#01D1C1;}
	.st35{fill:none;stroke:#FCA9A9;stroke-width:3;stroke-linecap:round;stroke-miterlimit:10;}
	.st36{fill:#FCA9A9;}
	.st37{fill:#FFFFFF;stroke:#000000;stroke-miterlimit:10;}
	.st38{fill:#11ACCD;stroke:#000000;stroke-miterlimit:10;}
	.st39{fill:#BABEC2;stroke:#BABEC2;stroke-miterlimit:10;}
	.st40{stroke:#000000;stroke-miterlimit:10;}
	.st41{font-family:'KaTeX_Main-Regular';}
	.st42{font-size:21px;}
	.st43{letter-spacing:2;}
</style>
<line class="st0" x1="150" y1="12" x2="150" y2="30"/>
<g>
	<line class="st0" x1="84" y1="78" x2="84" y2="30"/>
	<polyline class="st7" points="84,124.8 75,120.9 93,113.1 75,105.3 93,97.5 75,89.7 93,81.9 84,78 	"/>
	<line class="st0" x1="84" y1="143.4" x2="84" y2="124.8"/>
	<rect x="72" y="30" class="st3" width="24" height="113.4"/>
</g>
<g>
	<line class="st0" x1="216" y1="78" x2="216" y2="30"/>
	<polyline class="st7" points="216,124.8 207,120.9 225,113.1 207,105.3 225,97.5 207,89.7 225,81.9 216,78 	"/>
	<line class="st0" x1="216" y1="143.4" x2="216" y2="124.8"/>
	<rect x="204" y="30" class="st3" width="24" height="113.4"/>
</g>
<line class="st0" x1="150" y1="240" x2="150" y2="252"/>
<g>
	<polyline class="st7" points="150,192.6 159,196.5 141,204.3 159,212.1 141,219.9 159,227.7 141,235.5 150,239.4 	"/>
	<rect x="138" y="186" class="st3" width="24" height="60"/>
</g>
<g>
	<rect x="144" y="246" class="st3" width="12" height="12"/>
	<circle class="st37" cx="150" cy="252" r="3"/>
</g>
<text transform="matrix(1 0 0 1 162 222)"><tspan x="0" y="0" class="st41 st42">1.6</tspan><tspan x="26.8" y="0" class="st41 st42 st43">6</tspan><tspan x="39.4" y="0" class="st41 st42">Ω</tspan></text>
<text transform="matrix(1 0 0 1 234 101.4)"><tspan x="0" y="0" class="st41 st42 st43">5</tspan><tspan x="12.6" y="0" class="st41 st42">Ω</tspan></text>
<text transform="matrix(1 0 0 1 0 101.4)"><tspan x="0" y="0" class="st41 st42">4.37</tspan><tspan x="37.3" y="0" class="st41 st42 st43">5</tspan><tspan x="49.9" y="0" class="st41 st42">Ω</tspan></text>
<g>
	<rect x="144" y="6" class="st3" width="12" height="12"/>
	<circle class="st37" cx="150" cy="12" r="3"/>
</g>
<line class="st0" x1="150" y1="180" x2="150" y2="192"/>
<g>
	<circle class="st40" cx="150" cy="180" r="3"/>
	<rect x="144" y="174" class="st3" width="12" height="12"/>
</g>
<g>
	<circle class="st40" cx="150" cy="30" r="3"/>
	<rect x="144" y="24" class="st3" width="12" height="12"/>
</g>
<polyline class="st0" points="84,143.4 84,180 216,180 216,143.4 "/>
<line class="st0" x1="216" y1="30" x2="84" y2="30"/>
</svg>
