<?xml version="1.0" encoding="utf-8"?>
<!-- Generator: Adobe Illustrator 19.1.0, SVG Export Plug-In . SVG Version: 6.00 Build 0)  -->
<svg version="1.1" id="Layer_1" xmlns="http://www.w3.org/2000/svg" xmlns:xlink="http://www.w3.org/1999/xlink" x="0px" y="0px"
	 width="294.2px" height="270.5px" viewBox="0 0 294.2 270.5" style="enable-background:new 0 0 294.2 270.5;" xml:space="preserve"
	>
<style type="text/css">
	.st0{fill:none;stroke:#000000;stroke-linecap:round;stroke-linejoin:round;stroke-miterlimit:10;}
	.st1{fill:none;stroke:#BABEC2;stroke-linecap:round;stroke-linejoin:round;stroke-miterlimit:10;}
	.st2{fill:none;stroke:#BABEC2;stroke-width:2;stroke-linecap:round;stroke-linejoin:round;stroke-miterlimit:10;}
	.st3{fill:none;}
	.st4{fill:none;stroke:#000000;stroke-width:1.5;stroke-linecap:round;stroke-linejoin:round;stroke-miterlimit:10;}
	.st5{fill:none;stroke:#000000;stroke-linecap:round;stroke-miterlimit:10;}
	.st6{fill:none;stroke:#000000;stroke-width:1.5;stroke-linecap:round;stroke-miterlimit:10;}
	.st7{fill:none;stroke:#000000;stroke-width:2;stroke-linecap:round;stroke-linejoin:round;stroke-miterlimit:10;}
	.st8{fill:none;stroke:#000000;stroke-width:1.5;stroke-miterlimit:10;}
	.st9{fill:none;stroke:#000000;stroke-miterlimit:10;}
	.st10{fill:none;stroke:#000000;stroke-width:2;stroke-miterlimit:10;}
	.st11{fill:none;stroke:#000000;stroke-width:2;stroke-linecap:round;stroke-miterlimit:10;}
	.st12{fill:none;stroke:#000000;stroke-linecap:round;stroke-linejoin:round;}
	.st13{stroke:#000000;stroke-linecap:round;stroke-linejoin:round;stroke-miterlimit:10;}
	.st14{fill:none;stroke:#000000;stroke-width:1.5;stroke-linejoin:round;stroke-miterlimit:10;}
	.st15{fill:none;stroke:#000000;stroke-linejoin:round;stroke-miterlimit:10;}
	.st16{clip-path:url(#SVGID_2_);fill:none;stroke:#000000;stroke-linejoin:round;stroke-miterlimit:10;}
	.st17{clip-path:url(#SVGID_2_);fill:none;stroke:#ADADEB;stroke-linejoin:round;stroke-miterlimit:10;}
	.st18{clip-path:url(#SVGID_2_);}
	.st19{stroke:#000000;stroke-linejoin:round;stroke-miterlimit:10;}
	.st20{stroke:#000000;stroke-width:3;stroke-linejoin:round;stroke-miterlimit:10;}
	.st21{fill:none;stroke:#000000;stroke-linejoin:round;}
	.st22{opacity:0.5;fill:#CCFAFF;}
	.st23{fill:none;stroke:#0C7F99;stroke-miterlimit:10;}
	.st24{fill:#0C7F99;}
	.st25{fill:none;stroke:#11ACCD;stroke-width:3;stroke-linecap:round;stroke-miterlimit:10;}
	.st26{fill:#11ACCD;}
	.st27{fill:none;stroke:#01D1C1;stroke-width:2;stroke-miterlimit:10;}
	.st28{fill:none;stroke:#01D1C1;stroke-linecap:round;stroke-miterlimit:10;}
	.st29{fill:none;stroke:#01D1C1;stroke-linecap:round;stroke-linejoin:round;stroke-miterlimit:10;}
	.st30{fill:none;stroke:#01D1C1;stroke-width:1.5;stroke-miterlimit:10;}
	.st31{fill:none;stroke:#01D1C1;stroke-width:2;stroke-linecap:round;stroke-linejoin:round;stroke-miterlimit:10;}
	.st32{fill:#01D1C1;stroke:#01D1C1;stroke-linecap:round;stroke-linejoin:round;stroke-miterlimit:10;}
	.st33{fill:none;stroke:#01D1C1;stroke-miterlimit:10;}
	.st34{fill:#01D1C1;}
	.st35{fill:none;stroke:#FCA9A9;stroke-width:3;stroke-linecap:round;stroke-miterlimit:10;}
	.st36{fill:#FCA9A9;}
	.st37{fill:#FFFFFF;stroke:#000000;stroke-miterlimit:10;}
	.st38{fill:#11ACCD;stroke:#000000;stroke-miterlimit:10;}
	.st39{fill:#BABEC2;stroke:#BABEC2;stroke-miterlimit:10;}
	.st40{stroke:#000000;stroke-miterlimit:10;}
	.st41{font-family:'KaTeX_Main-Regular';}
	.st42{font-size:21px;}
	.st43{letter-spacing:2;}
</style>
<line class="st0" x1="156.2" y1="12" x2="156.2" y2="30"/>
<g>
	<line class="st0" x1="90.3" y1="48.6" x2="90.2" y2="30"/>
	<polyline class="st7" points="90.3,95.4 81.3,91.5 99.2,83.7 81.3,75.9 99.2,68.1 81.3,60.3 99.2,52.5 90.3,48.6 	"/>
	<line class="st0" x1="90.2" y1="114" x2="90.3" y2="95.4"/>
	<rect x="78.2" y="30" class="st3" width="24" height="84"/>
</g>
<g>
	<line class="st0" x1="90.3" y1="114.6" x2="90.2" y2="96"/>
	<polyline class="st7" points="90.3,161.4 81.3,157.5 99.2,149.7 81.3,141.9 99.2,134.1 81.3,126.3 99.2,118.5 90.3,114.6 	"/>
	<line class="st0" x1="90.2" y1="180" x2="90.3" y2="161.4"/>
	<rect x="78.2" y="96" class="st3" width="24" height="84"/>
</g>
<g>
	<line class="st0" x1="222.2" y1="48.6" x2="222.2" y2="30"/>
	<polyline class="st7" points="222.2,95.4 213.3,91.5 231.2,83.7 213.3,75.9 231.2,68.1 213.3,60.3 231.2,52.5 222.2,48.6 	"/>
	<line class="st0" x1="222.2" y1="114" x2="222.2" y2="95.4"/>
	<rect x="210.2" y="30" class="st3" width="24" height="84"/>
</g>
<g>
	<line class="st0" x1="222.2" y1="114.6" x2="222.2" y2="96"/>
	<polyline class="st7" points="222.2,161.4 213.3,157.5 231.2,149.7 213.3,141.9 231.2,134.1 213.3,126.3 231.2,118.5 222.2,114.6 	
		"/>
	<line class="st0" x1="222.2" y1="180" x2="222.2" y2="161.4"/>
	<rect x="210.2" y="96" class="st3" width="24" height="84"/>
</g>
<line class="st0" x1="156.2" y1="240" x2="156.2" y2="252"/>
<g>
	<polyline class="st7" points="156.2,192.6 165.2,196.5 147.2,204.3 165.2,212.1 147.2,219.9 165.2,227.7 147.2,235.5 156.2,239.4 	
		"/>
	<rect x="144.2" y="186" class="st3" width="24" height="60"/>
</g>
<g>
	<rect x="150.2" y="246" class="st3" width="12" height="12"/>
	<circle class="st37" cx="156.2" cy="252" r="3"/>
</g>
<text transform="matrix(1 0 0 1 240.2499 144)"><tspan x="0" y="0" class="st41 st42 st43">1</tspan><tspan x="12.6" y="0" class="st41 st42">Ω</tspan></text>
<text transform="matrix(1 0 0 1 18.25 150)"><tspan x="0" y="0" class="st41 st42">1.2</tspan><tspan x="26.8" y="0" class="st41 st42 st43">5</tspan><tspan x="39.4" y="0" class="st41 st42">Ω</tspan></text>
<text transform="matrix(1 0 0 1 168.25 222)"><tspan x="0" y="0" class="st41 st42">1.6</tspan><tspan x="26.8" y="0" class="st41 st42 st43">6</tspan><tspan x="39.4" y="0" class="st41 st42">Ω</tspan></text>
<text transform="matrix(1 0 0 1 240.25 72)"><tspan x="0" y="0" class="st41 st42 st43">4</tspan><tspan x="12.6" y="0" class="st41 st42">Ω</tspan></text>
<text transform="matrix(1 0 0 1 6.25 72)"><tspan x="0" y="0" class="st41 st42">3.12</tspan><tspan x="37.3" y="0" class="st41 st42 st43">5</tspan><tspan x="49.9" y="0" class="st41 st42">Ω</tspan></text>
<g>
	<rect x="150.2" y="6" class="st3" width="12" height="12"/>
	<circle class="st37" cx="156.2" cy="12" r="3"/>
</g>
<line class="st0" x1="156.2" y1="180" x2="156.2" y2="192"/>
<g>
	<circle class="st40" cx="156.2" cy="180" r="3"/>
	<rect x="150.2" y="174" class="st3" width="12" height="12"/>
</g>
<g>
	<circle class="st40" cx="156.2" cy="30" r="3"/>
	<rect x="150.2" y="24" class="st3" width="12" height="12"/>
</g>
<line class="st0" x1="90.2" y1="180" x2="222.2" y2="180"/>
<line class="st0" x1="222.2" y1="30" x2="90.2" y2="30"/>
</svg>
