<?xml version="1.0" encoding="utf-8"?>
<!-- Generator: Adobe Illustrator 19.1.0, SVG Export Plug-In . SVG Version: 6.00 Build 0)  -->
<svg version="1.1" id="Layer_1" xmlns="http://www.w3.org/2000/svg" xmlns:xlink="http://www.w3.org/1999/xlink" x="0px" y="0px"
	 width="295px" height="268px" viewBox="0 0 295 268" style="enable-background:new 0 0 295 268;" xml:space="preserve">
<style type="text/css">
	.st0{fill:none;stroke:#000000;stroke-linecap:round;stroke-linejoin:round;stroke-miterlimit:10;}
	.st1{fill:none;stroke:#BABEC2;stroke-linecap:round;stroke-linejoin:round;stroke-miterlimit:10;}
	.st2{fill:none;stroke:#BABEC2;stroke-width:2;stroke-linecap:round;stroke-linejoin:round;stroke-miterlimit:10;}
	.st3{fill:none;}
	.st4{fill:none;stroke:#000000;stroke-width:1.5;stroke-linecap:round;stroke-linejoin:round;stroke-miterlimit:10;}
	.st5{fill:none;stroke:#000000;stroke-linecap:round;stroke-miterlimit:10;}
	.st6{fill:none;stroke:#000000;stroke-width:1.5;stroke-linecap:round;stroke-miterlimit:10;}
	.st7{fill:none;stroke:#000000;stroke-width:2;stroke-linecap:round;stroke-linejoin:round;stroke-miterlimit:10;}
	.st8{fill:none;stroke:#000000;stroke-width:1.5;stroke-miterlimit:10;}
	.st9{fill:none;stroke:#000000;stroke-miterlimit:10;}
	.st10{fill:none;stroke:#000000;stroke-width:2;stroke-miterlimit:10;}
	.st11{fill:none;stroke:#000000;stroke-width:2;stroke-linecap:round;stroke-miterlimit:10;}
	.st12{fill:none;stroke:#000000;stroke-linecap:round;stroke-linejoin:round;}
	.st13{stroke:#000000;stroke-linecap:round;stroke-linejoin:round;stroke-miterlimit:10;}
	.st14{fill:none;stroke:#000000;stroke-width:1.5;stroke-linejoin:round;stroke-miterlimit:10;}
	.st15{fill:none;stroke:#000000;stroke-linejoin:round;stroke-miterlimit:10;}
	.st16{clip-path:url(#SVGID_2_);fill:none;stroke:#000000;stroke-linejoin:round;stroke-miterlimit:10;}
	.st17{clip-path:url(#SVGID_2_);fill:none;stroke:#ADADEB;stroke-linejoin:round;stroke-miterlimit:10;}
	.st18{clip-path:url(#SVGID_2_);}
	.st19{stroke:#000000;stroke-linejoin:round;stroke-miterlimit:10;}
	.st20{stroke:#000000;stroke-width:3;stroke-linejoin:round;stroke-miterlimit:10;}
	.st21{fill:none;stroke:#000000;stroke-linejoin:round;}
	.st22{opacity:0.5;fill:#CCFAFF;}
	.st23{fill:none;stroke:#0C7F99;stroke-miterlimit:10;}
	.st24{fill:#0C7F99;}
	.st25{fill:none;stroke:#11ACCD;stroke-width:3;stroke-linecap:round;stroke-miterlimit:10;}
	.st26{fill:#11ACCD;}
	.st27{fill:none;stroke:#01D1C1;stroke-width:2;stroke-miterlimit:10;}
	.st28{fill:none;stroke:#01D1C1;stroke-linecap:round;stroke-miterlimit:10;}
	.st29{fill:none;stroke:#01D1C1;stroke-linecap:round;stroke-linejoin:round;stroke-miterlimit:10;}
	.st30{fill:none;stroke:#01D1C1;stroke-width:1.5;stroke-miterlimit:10;}
	.st31{fill:none;stroke:#01D1C1;stroke-width:2;stroke-linecap:round;stroke-linejoin:round;stroke-miterlimit:10;}
	.st32{fill:#01D1C1;stroke:#01D1C1;stroke-linecap:round;stroke-linejoin:round;stroke-miterlimit:10;}
	.st33{fill:none;stroke:#01D1C1;stroke-miterlimit:10;}
	.st34{fill:#01D1C1;}
	.st35{fill:none;stroke:#FCA9A9;stroke-width:3;stroke-linecap:round;stroke-miterlimit:10;}
	.st36{fill:#FCA9A9;}
	.st37{fill:#FFFFFF;stroke:#000000;stroke-miterlimit:10;}
	.st38{fill:#11ACCD;stroke:#000000;stroke-miterlimit:10;}
	.st39{font-family:'KaTeX_Main-Italic';}
	.st40{font-size:18px;}
	.st41{font-family:'KaTeX_Main-Regular';}
	.st42{font-size:21px;}
	.st43{letter-spacing:2;}
	.st44{fill:#BABEC2;stroke:#BABEC2;stroke-miterlimit:10;}
	.st45{stroke:#000000;stroke-miterlimit:10;}
</style>
<line class="st1" x1="157" y1="234" x2="157" y2="252"/>
<g>
	<polyline class="st2" points="157,186.6 166,190.5 148,198.3 166,206.1 148,213.9 166,221.7 148,229.5 157,233.4 	"/>
	<rect x="145" y="168" class="st3" width="24" height="78"/>
</g>
<g>
	<line class="st1" x1="140.9" y1="164.7" x2="157" y2="174"/>
	<polyline class="st2" points="100.4,141.3 108.2,135.5 106,154.9 121.7,143.3 119.5,162.7 135.3,151.1 133,170.5 140.9,164.7 	"/>
	<line class="st1" x1="84.3" y1="132" x2="100.4" y2="141.3"/>
</g>
<g>
	<line class="st1" x1="172.4" y1="164.7" x2="156.3" y2="174"/>
	<polyline class="st2" points="212.9,141.3 205,135.5 207.3,154.9 191.5,143.3 193.7,162.7 178,151.1 180.2,170.5 172.4,164.7 	"/>
	<line class="st1" x1="229" y1="132" x2="212.9" y2="141.3"/>
</g>
<text transform="matrix(1 0 0 1 217.8403 192)" class="st26 st39 st40">Ra</text>
<text transform="matrix(1 0 0 1 146.2993 156)" class="st26 st39 st40">Rc</text>
<text transform="matrix(1 0 0 1 74.2993 192)" class="st26 st39 st40">Rb</text>
<text transform="matrix(1 0 0 1 68.8242 132)" class="st26 st39 st40">x</text>
<text transform="matrix(1 0 0 1 236.626 132)" class="st26 st39 st40">y</text>
<text transform="matrix(1 0 0 1 165.3188 264)" class="st26 st39 st40">z</text>
<g>
	<circle cx="229" cy="132" r="3"/>
	<rect x="223" y="126" class="st3" width="12" height="12"/>
</g>
<g>
	<circle cx="85" cy="132" r="3"/>
	<rect x="79" y="126" class="st3" width="12" height="12"/>
</g>
<g>
	<line class="st0" x1="106.8" y1="168.8" x2="85" y2="132"/>
	<polyline class="st7" points="131.6,208.5 121.9,210 133,193.8 113.6,196.8 124.7,180.6 105.3,183.5 116.5,167.4 106.8,168.8 	"/>
	<line class="st0" x1="157" y1="252" x2="131.6" y2="208.5"/>
</g>
<g>
	<line class="st0" x1="207.2" y1="168.8" x2="229" y2="132"/>
	<polyline class="st7" points="182.4,208.5 192.1,210 181,193.8 200.4,196.8 189.3,180.6 208.7,183.5 197.5,167.4 207.2,168.8 	"/>
	<line class="st0" x1="157" y1="252" x2="182.4" y2="208.5"/>
</g>
<g>
	<rect x="151" y="246" class="st3" width="12" height="12"/>
	<circle class="st37" cx="157" cy="252" r="3"/>
</g>
<text transform="matrix(1 0 0 1 204.9999 216)"><tspan x="0" y="0" class="st41 st42 st43">4</tspan><tspan x="12.6" y="0" class="st41 st42">Ω</tspan></text>
<text transform="matrix(1 0 0 1 79 216)"><tspan x="0" y="0" class="st41 st42 st43">5</tspan><tspan x="12.6" y="0" class="st41 st42">Ω</tspan></text>
<text transform="matrix(1 0 0 1 145 114)"><tspan x="0" y="0" class="st41 st42 st43">3</tspan><tspan x="12.6" y="0" class="st41 st42">Ω</tspan></text>
<text transform="matrix(1 0 0 1 205 66)"><tspan x="0" y="0" class="st41 st42 st43">4</tspan><tspan x="12.6" y="0" class="st41 st42">Ω</tspan></text>
<text transform="matrix(1 0 0 1 43 66)"><tspan x="0" y="0" class="st41 st42">3.12</tspan><tspan x="37.3" y="0" class="st41 st42 st43">5</tspan><tspan x="49.9" y="0" class="st41 st42">Ω</tspan></text>
<g>
	<line class="st0" x1="133.6" y1="132" x2="85" y2="132"/>
	<polyline class="st7" points="180.4,132 176.5,141 168.7,123 160.9,141 153.1,123 145.3,141 137.5,123 133.6,132 	"/>
	<line class="st0" x1="199" y1="132" x2="180.4" y2="132"/>
	<line class="st9" x1="199" y1="132" x2="229" y2="132"/>
</g>
<g>
	<line class="st0" x1="207.2" y1="95.2" x2="229" y2="132"/>
	<polyline class="st7" points="182.4,55.5 192.1,54 181,70.2 200.4,67.2 189.3,83.4 208.7,80.5 197.5,96.6 207.2,95.2 	"/>
	<line class="st0" x1="157" y1="12" x2="182.4" y2="55.5"/>
</g>
<g>
	<line class="st0" x1="106.8" y1="95.2" x2="85" y2="132"/>
	<polyline class="st7" points="131.6,55.5 121.9,54 133,70.2 113.6,67.2 124.7,83.4 105.3,80.5 116.5,96.6 106.8,95.2 	"/>
	<line class="st0" x1="157" y1="12" x2="131.6" y2="55.5"/>
</g>
<g>
	<rect x="151" y="6" class="st3" width="12" height="12"/>
	<circle class="st37" cx="157" cy="12" r="3"/>
</g>
<line class="st1" x1="157" y1="174" x2="157" y2="186"/>
<g>
	<circle class="st44" cx="157" cy="174" r="3"/>
	<rect x="151" y="168" class="st3" width="12" height="12"/>
</g>
</svg>
