<?xml version="1.0" encoding="utf-8"?>
<!-- Generator: Adobe Illustrator 19.1.0, SVG Export Plug-In . SVG Version: 6.00 Build 0)  -->
<svg version="1.1" id="Layer_1" xmlns="http://www.w3.org/2000/svg" xmlns:xlink="http://www.w3.org/1999/xlink" x="0px" y="0px"
	 width="293px" height="270px" viewBox="0 0 293 270" style="enable-background:new 0 0 293 270;" xml:space="preserve">
<style type="text/css">
	.st0{fill:none;stroke:#000000;stroke-linecap:round;stroke-linejoin:round;stroke-miterlimit:10;}
	.st1{fill:none;stroke:#BABEC2;stroke-linecap:round;stroke-linejoin:round;stroke-miterlimit:10;}
	.st2{fill:none;stroke:#BABEC2;stroke-width:2;stroke-linecap:round;stroke-linejoin:round;stroke-miterlimit:10;}
	.st3{fill:none;}
	.st4{fill:none;stroke:#000000;stroke-width:1.5;stroke-linecap:round;stroke-linejoin:round;stroke-miterlimit:10;}
	.st5{fill:none;stroke:#000000;stroke-linecap:round;stroke-miterlimit:10;}
	.st6{fill:none;stroke:#000000;stroke-width:1.5;stroke-linecap:round;stroke-miterlimit:10;}
	.st7{fill:none;stroke:#000000;stroke-width:2;stroke-linecap:round;stroke-linejoin:round;stroke-miterlimit:10;}
	.st8{fill:none;stroke:#000000;stroke-width:1.5;stroke-miterlimit:10;}
	.st9{fill:none;stroke:#000000;stroke-miterlimit:10;}
	.st10{fill:none;stroke:#000000;stroke-width:2;stroke-miterlimit:10;}
	.st11{fill:none;stroke:#000000;stroke-width:2;stroke-linecap:round;stroke-miterlimit:10;}
	.st12{fill:none;stroke:#000000;stroke-linecap:round;stroke-linejoin:round;}
	.st13{stroke:#000000;stroke-linecap:round;stroke-linejoin:round;stroke-miterlimit:10;}
	.st14{fill:none;stroke:#000000;stroke-width:1.5;stroke-linejoin:round;stroke-miterlimit:10;}
	.st15{fill:none;stroke:#000000;stroke-linejoin:round;stroke-miterlimit:10;}
	.st16{clip-path:url(#SVGID_2_);fill:none;stroke:#000000;stroke-linejoin:round;stroke-miterlimit:10;}
	.st17{clip-path:url(#SVGID_2_);fill:none;stroke:#ADADEB;stroke-linejoin:round;stroke-miterlimit:10;}
	.st18{clip-path:url(#SVGID_2_);}
	.st19{stroke:#000000;stroke-linejoin:round;stroke-miterlimit:10;}
	.st20{stroke:#000000;stroke-width:3;stroke-linejoin:round;stroke-miterlimit:10;}
	.st21{fill:none;stroke:#000000;stroke-linejoin:round;}
	.st22{opacity:0.5;fill:#CCFAFF;}
	.st23{fill:none;stroke:#0C7F99;stroke-miterlimit:10;}
	.st24{fill:#0C7F99;}
	.st25{fill:none;stroke:#11ACCD;stroke-width:3;stroke-linecap:round;stroke-miterlimit:10;}
	.st26{fill:#11ACCD;}
	.st27{fill:none;stroke:#01D1C1;stroke-width:2;stroke-miterlimit:10;}
	.st28{fill:none;stroke:#01D1C1;stroke-linecap:round;stroke-miterlimit:10;}
	.st29{fill:none;stroke:#01D1C1;stroke-linecap:round;stroke-linejoin:round;stroke-miterlimit:10;}
	.st30{fill:none;stroke:#01D1C1;stroke-width:1.5;stroke-miterlimit:10;}
	.st31{fill:none;stroke:#01D1C1;stroke-width:2;stroke-linecap:round;stroke-linejoin:round;stroke-miterlimit:10;}
	.st32{fill:#01D1C1;stroke:#01D1C1;stroke-linecap:round;stroke-linejoin:round;stroke-miterlimit:10;}
	.st33{fill:none;stroke:#01D1C1;stroke-miterlimit:10;}
	.st34{fill:#01D1C1;}
	.st35{fill:none;stroke:#FCA9A9;stroke-width:3;stroke-linecap:round;stroke-miterlimit:10;}
	.st36{fill:#FCA9A9;}
	.st37{fill:#FFFFFF;stroke:#000000;stroke-miterlimit:10;}
	.st38{fill:#11ACCD;stroke:#000000;stroke-miterlimit:10;}
	.st39{fill:#BABEC2;stroke:#BABEC2;stroke-miterlimit:10;}
	.st40{font-family:'KaTeX_Main-Italic';}
	.st41{font-size:18px;}
	.st42{font-family:'KaTeX_Main-Regular';}
	.st43{font-size:21px;}
	.st44{letter-spacing:2;}
	.st45{stroke:#000000;stroke-miterlimit:10;}
</style>
<line class="st0" x1="155" y1="234" x2="155" y2="252"/>
<g>
	<polyline class="st7" points="155,186.6 164,190.5 146,198.3 164,206.1 146,213.9 164,221.7 146,229.5 155,233.4 	"/>
	<rect x="143" y="180" class="st3" width="24" height="60"/>
</g>
<line class="st0" x1="138.9" y1="164.7" x2="155" y2="174"/>
<polyline class="st7" points="138.9,164.7 131,170.5 133.3,151.1 117.5,162.7 119.7,143.3 104,154.9 106.2,135.5 98.4,141.3 "/>
<line class="st0" x1="82.8" y1="132.3" x2="98.4" y2="141.3"/>
<g>
	<line class="st0" x1="170.4" y1="164.7" x2="154.3" y2="174"/>
	<polyline class="st7" points="210.9,141.3 203,135.5 205.3,154.9 189.5,143.3 191.7,162.7 176,151.1 178.2,170.5 170.4,164.7 	"/>
	<line class="st0" x1="227" y1="132" x2="210.9" y2="141.3"/>
</g>
<text transform="matrix(1 0 0 1 66.8242 132)" class="st26 st40 st41">x</text>
<text transform="matrix(1 0 0 1 234.626 132)" class="st26 st40 st41">y</text>
<text transform="matrix(1 0 0 1 163.3188 264)" class="st26 st40 st41">z</text>
<g>
	<rect x="149" y="246" class="st3" width="12" height="12"/>
	<circle class="st37" cx="155" cy="252" r="3"/>
</g>
<text transform="matrix(1 0 0 1 196.9999 180)"><tspan x="0" y="0" class="st42 st43 st44">1</tspan><tspan x="12.6" y="0" class="st42 st43">Ω</tspan></text>
<text transform="matrix(1 0 0 1 59 180)"><tspan x="0" y="0" class="st42 st43">1.2</tspan><tspan x="26.8" y="0" class="st42 st43 st44">5</tspan><tspan x="39.4" y="0" class="st42 st43">Ω</tspan></text>
<text transform="matrix(1 0 0 1 167 216)"><tspan x="0" y="0" class="st42 st43">1.6</tspan><tspan x="26.8" y="0" class="st42 st43 st44">6</tspan><tspan x="39.4" y="0" class="st42 st43">Ω</tspan></text>
<text transform="matrix(1 0 0 1 203 66)"><tspan x="0" y="0" class="st42 st43 st44">4</tspan><tspan x="12.6" y="0" class="st42 st43">Ω</tspan></text>
<text transform="matrix(1 0 0 1 41 66)"><tspan x="0" y="0" class="st42 st43">3.12</tspan><tspan x="37.3" y="0" class="st42 st43 st44">5</tspan><tspan x="49.9" y="0" class="st42 st43">Ω</tspan></text>
<g>
	<line class="st0" x1="205.2" y1="95.2" x2="227" y2="132"/>
	<polyline class="st7" points="180.4,55.5 190.1,54 179,70.2 198.4,67.2 187.3,83.4 206.7,80.5 195.5,96.6 205.2,95.2 	"/>
	<line class="st0" x1="155" y1="12" x2="180.4" y2="55.5"/>
</g>
<g>
	<line class="st0" x1="104.8" y1="95.2" x2="83" y2="132"/>
	<polyline class="st7" points="129.6,55.5 119.9,54 131,70.2 111.6,67.2 122.7,83.4 103.3,80.5 114.5,96.6 104.8,95.2 	"/>
	<line class="st0" x1="155" y1="12" x2="129.6" y2="55.5"/>
</g>
<g>
	<rect x="149" y="6" class="st3" width="12" height="12"/>
	<circle class="st37" cx="155" cy="12" r="3"/>
</g>
<line class="st0" x1="155" y1="174" x2="155" y2="186"/>
<g>
	<circle class="st45" cx="155" cy="174" r="3"/>
	<rect x="149" y="168" class="st3" width="12" height="12"/>
</g>
<text transform="matrix(1 0 0 1 125.8403 144)" class="st26 st40 st41">R1</text>
<text transform="matrix(1 0 0 1 161.8403 144)" class="st26 st40 st41">R2</text>
<text transform="matrix(1 0 0 1 119.8403 216)" class="st26 st40 st41">R3</text>
</svg>
