<?xml version="1.0" encoding="utf-8"?>
<!-- Generator: Adobe Illustrator 19.1.0, SVG Export Plug-In . SVG Version: 6.00 Build 0)  -->
<svg version="1.1" id="Layer_1" xmlns="http://www.w3.org/2000/svg" xmlns:xlink="http://www.w3.org/1999/xlink" x="0px" y="0px"
	 width="294px" height="264px" viewBox="0 0 294 264" style="enable-background:new 0 0 294 264;" xml:space="preserve">
<style type="text/css">
	.st0{fill:none;stroke:#000000;stroke-linecap:round;stroke-linejoin:round;stroke-miterlimit:10;}
	.st1{fill:none;stroke:#BABEC2;stroke-linecap:round;stroke-linejoin:round;stroke-miterlimit:10;}
	.st2{fill:none;stroke:#BABEC2;stroke-width:2;stroke-linecap:round;stroke-linejoin:round;stroke-miterlimit:10;}
	.st3{fill:none;}
	.st4{fill:none;stroke:#000000;stroke-width:1.5;stroke-linecap:round;stroke-linejoin:round;stroke-miterlimit:10;}
	.st5{fill:none;stroke:#000000;stroke-linecap:round;stroke-miterlimit:10;}
	.st6{fill:none;stroke:#000000;stroke-width:1.5;stroke-linecap:round;stroke-miterlimit:10;}
	.st7{fill:none;stroke:#000000;stroke-width:2;stroke-linecap:round;stroke-linejoin:round;stroke-miterlimit:10;}
	.st8{fill:none;stroke:#000000;stroke-width:1.5;stroke-miterlimit:10;}
	.st9{fill:none;stroke:#000000;stroke-miterlimit:10;}
	.st10{fill:none;stroke:#000000;stroke-width:2;stroke-miterlimit:10;}
	.st11{fill:none;stroke:#000000;stroke-width:2;stroke-linecap:round;stroke-miterlimit:10;}
	.st12{fill:none;stroke:#000000;stroke-linecap:round;stroke-linejoin:round;}
	.st13{stroke:#000000;stroke-linecap:round;stroke-linejoin:round;stroke-miterlimit:10;}
	.st14{fill:none;stroke:#000000;stroke-width:1.5;stroke-linejoin:round;stroke-miterlimit:10;}
	.st15{fill:none;stroke:#000000;stroke-linejoin:round;stroke-miterlimit:10;}
	.st16{clip-path:url(#SVGID_2_);fill:none;stroke:#000000;stroke-linejoin:round;stroke-miterlimit:10;}
	.st17{clip-path:url(#SVGID_2_);fill:none;stroke:#ADADEB;stroke-linejoin:round;stroke-miterlimit:10;}
	.st18{clip-path:url(#SVGID_2_);}
	.st19{stroke:#000000;stroke-linejoin:round;stroke-miterlimit:10;}
	.st20{stroke:#000000;stroke-width:3;stroke-linejoin:round;stroke-miterlimit:10;}
	.st21{fill:none;stroke:#000000;stroke-linejoin:round;}
	.st22{opacity:0.5;fill:#CCFAFF;}
	.st23{fill:none;stroke:#0C7F99;stroke-miterlimit:10;}
	.st24{fill:#0C7F99;}
	.st25{fill:none;stroke:#11ACCD;stroke-width:3;stroke-linecap:round;stroke-miterlimit:10;}
	.st26{fill:#11ACCD;}
	.st27{fill:none;stroke:#01D1C1;stroke-width:2;stroke-miterlimit:10;}
	.st28{fill:none;stroke:#01D1C1;stroke-linecap:round;stroke-miterlimit:10;}
	.st29{fill:none;stroke:#01D1C1;stroke-linecap:round;stroke-linejoin:round;stroke-miterlimit:10;}
	.st30{fill:none;stroke:#01D1C1;stroke-width:1.5;stroke-miterlimit:10;}
	.st31{fill:none;stroke:#01D1C1;stroke-width:2;stroke-linecap:round;stroke-linejoin:round;stroke-miterlimit:10;}
	.st32{fill:#01D1C1;stroke:#01D1C1;stroke-linecap:round;stroke-linejoin:round;stroke-miterlimit:10;}
	.st33{fill:none;stroke:#01D1C1;stroke-miterlimit:10;}
	.st34{fill:#01D1C1;}
	.st35{fill:none;stroke:#FCA9A9;stroke-width:3;stroke-linecap:round;stroke-miterlimit:10;}
	.st36{fill:#FCA9A9;}
	.st37{fill:#FFFFFF;stroke:#000000;stroke-miterlimit:10;}
	.st38{fill:#11ACCD;stroke:#000000;stroke-miterlimit:10;}
	.st39{font-family:'KaTeX_Main-Regular';}
	.st40{font-size:21px;}
	.st41{letter-spacing:2;}
	.st42{fill:#BABEC2;stroke:#BABEC2;stroke-miterlimit:10;}
	.st43{stroke:#000000;stroke-miterlimit:10;}
</style>
<g>
	<line class="st0" x1="179.4" y1="132" x2="198" y2="132"/>
	<polyline class="st7" points="132.6,132 136.5,123 144.3,141 152.1,123 159.9,141 167.7,123 175.5,141 179.4,132 	"/>
	<line class="st0" x1="114" y1="132" x2="132.6" y2="132"/>
	<rect x="114" y="120" class="st3" width="84" height="24"/>
</g>
<g>
	<line class="st0" x1="84" y1="54.6" x2="84" y2="36"/>
	<polyline class="st7" points="84,101.4 75,97.5 93,89.7 75,81.9 93,74.1 75,66.3 93,58.5 84,54.6 	"/>
	<line class="st0" x1="84" y1="120" x2="84" y2="101.4"/>
	<rect x="72" y="36" class="st3" width="24" height="84"/>
</g>
<g>
	<line class="st0" x1="84" y1="168.6" x2="84" y2="150"/>
	<polyline class="st7" points="84,215.4 75,211.5 93,203.7 75,195.9 93,188.1 75,180.3 93,172.5 84,168.6 	"/>
	<line class="st0" x1="84" y1="234" x2="84" y2="215.4"/>
	<rect x="72" y="150" class="st3" width="24" height="84"/>
</g>
<g>
	<line class="st0" x1="228" y1="54.6" x2="228" y2="36"/>
	<polyline class="st7" points="228,101.4 219,97.5 237,89.7 219,81.9 237,74.1 219,66.3 237,58.5 228,54.6 	"/>
	<line class="st0" x1="228" y1="120" x2="228" y2="101.4"/>
	<rect x="216" y="36" class="st3" width="24" height="84"/>
</g>
<g>
	<line class="st0" x1="228" y1="168.6" x2="228" y2="150"/>
	<polyline class="st7" points="228,215.4 219,211.5 237,203.7 219,195.9 237,188.1 219,180.3 237,172.5 228,168.6 	"/>
	<line class="st0" x1="228" y1="234" x2="228" y2="215.4"/>
	<rect x="216" y="150" class="st3" width="24" height="84"/>
</g>
<g>
	<circle cx="84" cy="132" r="3"/>
	<rect x="78" y="126" class="st3" width="12" height="12"/>
</g>
<g>
	<circle cx="228" cy="132" r="3"/>
	<rect x="222" y="126" class="st3" width="12" height="12"/>
</g>
<g>
	<circle cx="156" cy="36" r="3"/>
	<rect x="150" y="30" class="st3" width="12" height="12"/>
</g>
<g>
	<circle cx="156" cy="234" r="3"/>
	<rect x="150" y="228" class="st3" width="12" height="12"/>
</g>
<text transform="matrix(1 0 0 1 245.9999 198)"><tspan x="0" y="0" class="st39 st40 st41">4</tspan><tspan x="12.6" y="0" class="st39 st40">Ω</tspan></text>
<text transform="matrix(1 0 0 1 36 204)"><tspan x="0" y="0" class="st39 st40 st41">5</tspan><tspan x="12.6" y="0" class="st39 st40">Ω</tspan></text>
<text transform="matrix(1 0 0 1 144 120)"><tspan x="0" y="0" class="st39 st40 st41">3</tspan><tspan x="12.6" y="0" class="st39 st40">Ω</tspan></text>
<text transform="matrix(1 0 0 1 246 84)"><tspan x="0" y="0" class="st39 st40 st41">4</tspan><tspan x="12.6" y="0" class="st39 st40">Ω</tspan></text>
<text transform="matrix(1 0 0 1 6 84)"><tspan x="0" y="0" class="st39 st40">3.12</tspan><tspan x="37.3" y="0" class="st39 st40 st41">5</tspan><tspan x="49.9" y="0" class="st39 st40">Ω</tspan></text>
<line class="st9" x1="84" y1="36" x2="228" y2="36"/>
<line class="st9" x1="156" y1="12" x2="156" y2="36"/>
<line class="st9" x1="84" y1="120" x2="84" y2="150"/>
<line class="st9" x1="114" y1="132" x2="84" y2="132"/>
<line class="st9" x1="198" y1="132" x2="228" y2="132"/>
<line class="st9" x1="228" y1="120" x2="228" y2="150"/>
<line class="st9" x1="228" y1="234" x2="84" y2="234"/>
<line class="st9" x1="156" y1="252" x2="156" y2="234"/>
<g>
	<rect x="150" y="6" class="st3" width="12" height="12"/>
	<circle class="st37" cx="156" cy="12" r="3"/>
</g>
<g>
	<rect x="150" y="246" class="st3" width="12" height="12"/>
	<circle class="st37" cx="156" cy="252" r="3"/>
</g>
</svg>
