<?xml version="1.0" encoding="utf-8"?>
<!-- Generator: Adobe Illustrator 19.1.0, SVG Export Plug-In . SVG Version: 6.00 Build 0)  -->
<svg version="1.1" id="Layer_1" xmlns="http://www.w3.org/2000/svg" xmlns:xlink="http://www.w3.org/1999/xlink" x="0px" y="0px"
	 width="216px" height="137.3px" viewBox="0 0 216 137.3" style="enable-background:new 0 0 216 137.3;" xml:space="preserve">
<style type="text/css">
	.st0{fill:none;}
	.st1{fill:#E07D10;}
	.st2{fill:none;stroke:#ED5FA6;stroke-width:7;stroke-linecap:round;stroke-linejoin:round;stroke-miterlimit:10;}
	.st3{fill:none;stroke:#AA87FF;stroke-width:7;stroke-linecap:round;stroke-linejoin:round;stroke-miterlimit:10;}
	.st4{fill:none;stroke:#FF9C39;stroke-width:7;stroke-linecap:round;stroke-linejoin:round;stroke-miterlimit:10;}
	.st5{fill:#8AF281;stroke:#8AF281;stroke-linecap:round;stroke-linejoin:round;stroke-miterlimit:10;}
	.st6{fill:#FF9C39;stroke:#E07D10;stroke-linecap:round;stroke-linejoin:round;stroke-miterlimit:10;}
	.st7{fill:none;stroke:#8AF281;stroke-width:7;stroke-linecap:round;stroke-linejoin:round;stroke-miterlimit:10;}
	.st8{fill:#ED5FA6;stroke:#ED5FA6;stroke-width:7;stroke-linecap:round;stroke-linejoin:round;stroke-miterlimit:10;}
	.st9{fill:none;stroke:#1FAB54;stroke-width:7;stroke-linecap:round;stroke-linejoin:round;stroke-miterlimit:10;}
	.st10{fill:none;stroke:#1FAB54;stroke-width:6;stroke-linecap:round;stroke-linejoin:round;stroke-miterlimit:10;}
	.st11{fill:#FF9C39;stroke:#FF9C39;stroke-width:5;stroke-linecap:round;stroke-miterlimit:10;}
	.st12{fill:none;stroke:#1FAB54;stroke-width:4;stroke-miterlimit:10;}
	.st13{fill:none;stroke:#3C91E5;stroke-width:4;stroke-miterlimit:10;}
	.st14{fill:#FFFFFF;}
	.st15{fill:none;stroke:#11ACCD;stroke-width:5;stroke-linecap:round;stroke-miterlimit:10;}
	.st16{fill:#11ACCD;}
	.st17{fill:none;stroke:#FF9C39;stroke-width:4;stroke-miterlimit:10;}
	.st18{fill:none;stroke:#63D9EA;stroke-width:7;stroke-linecap:round;stroke-miterlimit:10;}
	.st19{fill:none;stroke:#63D9EA;stroke-width:8;stroke-linecap:round;stroke-miterlimit:10;}
	.st20{fill:none;stroke:#000000;stroke-linecap:round;stroke-linejoin:round;stroke-miterlimit:10;}
	.st21{fill:none;stroke:#000000;stroke-width:1.5;stroke-linecap:round;stroke-linejoin:round;stroke-miterlimit:10;}
	.st22{fill:none;stroke:#000000;stroke-linecap:round;stroke-miterlimit:10;}
	.st23{fill:none;stroke:#000000;stroke-width:1.5;stroke-linecap:round;stroke-miterlimit:10;}
	.st24{fill:none;stroke:#000000;stroke-width:2;stroke-linecap:round;stroke-linejoin:round;stroke-miterlimit:10;}
	.st25{fill:none;stroke:#000000;stroke-width:1.5;stroke-miterlimit:10;}
	.st26{fill:none;stroke:#000000;stroke-miterlimit:10;}
	.st27{fill:none;stroke:#000000;stroke-width:2;stroke-miterlimit:10;}
	.st28{fill:none;stroke:#000000;stroke-width:2;stroke-linecap:round;stroke-miterlimit:10;}
	.st29{fill:none;stroke:#000000;stroke-linecap:round;stroke-linejoin:round;}
	.st30{stroke:#000000;stroke-linecap:round;stroke-linejoin:round;stroke-miterlimit:10;}
	.st31{fill:none;stroke:#000000;stroke-width:1.5;stroke-linejoin:round;stroke-miterlimit:10;}
	.st32{fill:none;stroke:#000000;stroke-linejoin:round;stroke-miterlimit:10;}
	.st33{clip-path:url(#SVGID_2_);fill:none;stroke:#000000;stroke-linejoin:round;stroke-miterlimit:10;}
	.st34{clip-path:url(#SVGID_2_);fill:none;stroke:#ADADEB;stroke-linejoin:round;stroke-miterlimit:10;}
	.st35{clip-path:url(#SVGID_2_);}
	.st36{stroke:#000000;stroke-linejoin:round;stroke-miterlimit:10;}
	.st37{stroke:#000000;stroke-width:3;stroke-linejoin:round;stroke-miterlimit:10;}
	.st38{fill:none;stroke:#E84D39;stroke-width:3;stroke-linecap:round;stroke-linejoin:round;}
	.st39{fill:#E84D39;}
	.st40{fill:none;stroke:#11ACCD;stroke-width:2;stroke-linecap:round;stroke-linejoin:round;}
	.st41{fill:none;stroke:#F9685D;stroke-width:2;stroke-linecap:round;stroke-linejoin:round;}
	.st42{fill:#F9685D;}
	.st43{fill:#11ACCD;stroke:#000000;stroke-linecap:round;stroke-miterlimit:10;}
	.st44{stroke:#000000;stroke-linecap:round;stroke-miterlimit:10;}
	.st45{fill:#FFFF00;stroke:#000000;stroke-linecap:round;stroke-miterlimit:10;}
	.st46{fill:#F9685D;stroke:#000000;stroke-linecap:round;stroke-miterlimit:10;}
	.st47{fill:#D6D8DA;stroke:#000000;stroke-linecap:round;stroke-miterlimit:10;}
	.st48{fill:none;stroke:#FF9C39;stroke-width:5;stroke-linecap:round;stroke-linejoin:round;stroke-miterlimit:10;}
	.st49{fill:#FF9C39;}
	.st50{fill:#AA87FF;}
	.st51{fill:#ED5FA6;}
	.st52{fill:#1FAB54;}
	.st53{fill:none;stroke:#000000;stroke-width:4;stroke-linecap:round;stroke-linejoin:round;stroke-miterlimit:10;}
	.st54{stroke:#000000;stroke-miterlimit:10;}
	.st55{stroke:#000000;stroke-width:2;stroke-linecap:round;stroke-linejoin:round;stroke-miterlimit:10;}
	.st56{fill:none;stroke:#000000;stroke-width:3;stroke-linecap:round;stroke-linejoin:round;stroke-miterlimit:10;}
	.st57{font-family:'KaTeX_Main-Regular';}
	.st58{font-size:24px;}
	.st59{font-family:'KaTeX_Main-Italic';}
	.st60{font-family:'KaTeX_Main-Bold';}
	.st61{fill:none;stroke:#000000;stroke-linejoin:round;}
	.st62{fill:none;stroke:#000000;stroke-width:7;stroke-linecap:round;stroke-linejoin:round;stroke-miterlimit:10;}
	.st63{fill:none;stroke:#11ACCD;stroke-width:3;stroke-linecap:round;stroke-linejoin:round;}
	.st64{fill:none;stroke:#11ACCD;stroke-width:2;stroke-linecap:round;stroke-miterlimit:10;}
	.st65{fill:none;stroke:#E07D10;stroke-width:2;stroke-linecap:round;stroke-miterlimit:10;}
	.st66{fill:none;stroke:#11ACCD;stroke-width:2;stroke-miterlimit:10;}
	.st67{fill:none;stroke:#000000;stroke-width:3;stroke-linecap:square;stroke-miterlimit:10;}
	.st68{fill:#BE2612;}
	.st69{fill:none;stroke:#BE2612;stroke-width:2;stroke-linecap:round;stroke-linejoin:round;}
	.st70{fill:none;stroke:#21242C;stroke-linecap:round;stroke-linejoin:round;stroke-miterlimit:10;}
	.st71{fill:none;stroke:#11ACCD;stroke-width:3;stroke-linecap:round;stroke-miterlimit:10;}
	.st72{fill:#FFFFFF;stroke:#000000;stroke-miterlimit:10;}
</style>
<circle class="st55" cx="98.2" cy="72" r="8.2"/>
<path class="st56" d="M48.8,129.8C80,115,98.2,72.3,98.2,72.3S57,55.8,24,72"/>
<g>
	<g>
		<path class="st40" d="M63.9,73.5c-6.3-1.4-16-2.2-24.3,1.9"/>
		<g>
			<path class="st16" d="M70.9,75.5c-2.9-2.1-6.5-5.3-8.4-8.2l0.5,6.1l-3.5,5C62.6,76.7,67.2,75.8,70.9,75.5z"/>
		</g>
	</g>
</g>
<g>
	<g>
		<path class="st40" d="M75.9,121.5c5-2.9,8.8-8.9,11.2-13.6"/>
		<g>
			<path class="st16" d="M90,101.2c-0.2,3.6,0,8.4,1,11.7l-4.4-4.2l-6.1-0.4C83.8,106.8,87.5,103.8,90,101.2z"/>
		</g>
	</g>
</g>
<path class="st56" d="M156,39c-36.4,7.6-57.8,33.3-57.8,33.3s28.2,16.2,49.5,49.2"/>
<g>
	<g>
		<path class="st40" d="M136.6,34.5c-9.4,1.9-16.5,6.5-21,10.2"/>
		<g>
			<path class="st16" d="M110.4,49.6c1.6-3.2,3.3-7.7,3.6-11.2l2.4,5.6l5.4,2.8C118.3,46.9,113.7,48.2,110.4,49.6z"/>
		</g>
	</g>
</g>
<g>
	<g>
		<path class="st40" d="M132.4,88.6c4.3,3.5,10.3,9.1,15.4,17"/>
		<g>
			<path class="st16" d="M126.4,84.4c2,3,4.2,7.2,5,10.6l1.7-5.8l5-3.4C134.6,86.1,129.9,85.3,126.4,84.4z"/>
		</g>
	</g>
</g>
<path class="st56" d="M65.2,6c18.9,20.6,33,66.3,33,66.3"/>
<g>
	<g>
		<path class="st40" d="M66,24.1c4.5,4.9,8.2,13.3,10.5,19.2"/>
		<g>
			<path class="st16" d="M79,50.2c-2.4-2.8-5.8-6-8.9-7.7l6.1,0l4.7-3.9C79.6,41.9,79,46.6,79,50.2z"/>
		</g>
	</g>
</g>
<text transform="matrix(1 0 0 1 53.0001 40.9999)" class="st16 st57 st58">1</text>
<text transform="matrix(1 0 0 1 46.0001 91.9998)" class="st16 st57 st58">4</text>
<text transform="matrix(1 0 0 1 84.0001 125.9998)" class="st16 st57 st58">−2</text>
<text transform="matrix(1 0 0 1 139.5001 88.4998)" class="st16 st57 st58">3</text>
<text transform="matrix(1 0 0 1 110.0001 26.7498)" class="st16 st59 st58">i</text>
<text transform="matrix(0.583 0 0 0.583 117.3677 34.742)" class="st16 st60 st58">5</text>
</svg>
