<?xml version="1.0" encoding="utf-8"?>
<!-- Generator: Adobe Illustrator 19.1.0, SVG Export Plug-In . SVG Version: 6.00 Build 0)  -->
<svg version="1.1" id="Layer_1" xmlns="http://www.w3.org/2000/svg" xmlns:xlink="http://www.w3.org/1999/xlink" x="0px" y="0px"
	 width="396px" height="144px" viewBox="0 0 396 144" style="enable-background:new 0 0 396 144;" xml:space="preserve">
<style type="text/css">
	.st0{fill:none;stroke:#000000;stroke-linecap:round;stroke-linejoin:round;stroke-miterlimit:10;}
	.st1{fill:none;stroke:#BABEC2;stroke-linecap:round;stroke-linejoin:round;stroke-miterlimit:10;}
	.st2{fill:none;stroke:#BABEC2;stroke-width:2;stroke-linecap:round;stroke-linejoin:round;stroke-miterlimit:10;}
	.st3{fill:none;}
	.st4{fill:none;stroke:#000000;stroke-width:1.5;stroke-linecap:round;stroke-linejoin:round;stroke-miterlimit:10;}
	.st5{fill:none;stroke:#000000;stroke-linecap:round;stroke-miterlimit:10;}
	.st6{fill:none;stroke:#000000;stroke-width:1.5;stroke-linecap:round;stroke-miterlimit:10;}
	.st7{fill:none;stroke:#000000;stroke-width:2;stroke-linecap:round;stroke-linejoin:round;stroke-miterlimit:10;}
	.st8{fill:none;stroke:#000000;stroke-width:1.5;stroke-miterlimit:10;}
	.st9{fill:none;stroke:#000000;stroke-miterlimit:10;}
	.st10{fill:none;stroke:#000000;stroke-width:2;stroke-miterlimit:10;}
	.st11{fill:none;stroke:#000000;stroke-width:2;stroke-linecap:round;stroke-miterlimit:10;}
	.st12{fill:none;stroke:#000000;stroke-linecap:round;stroke-linejoin:round;}
	.st13{stroke:#000000;stroke-linecap:round;stroke-linejoin:round;stroke-miterlimit:10;}
	.st14{fill:none;stroke:#000000;stroke-width:1.5;stroke-linejoin:round;stroke-miterlimit:10;}
	.st15{fill:none;stroke:#000000;stroke-linejoin:round;stroke-miterlimit:10;}
	.st16{clip-path:url(#SVGID_2_);fill:none;stroke:#000000;stroke-linejoin:round;stroke-miterlimit:10;}
	.st17{clip-path:url(#SVGID_2_);fill:none;stroke:#ADADEB;stroke-linejoin:round;stroke-miterlimit:10;}
	.st18{clip-path:url(#SVGID_2_);}
	.st19{stroke:#000000;stroke-linejoin:round;stroke-miterlimit:10;}
	.st20{stroke:#000000;stroke-width:3;stroke-linejoin:round;stroke-miterlimit:10;}
	.st21{fill:none;stroke:#000000;stroke-linejoin:round;}
	.st22{opacity:0.5;fill:#CCFAFF;}
	.st23{fill:none;stroke:#0C7F99;stroke-miterlimit:10;}
	.st24{fill:#0C7F99;}
	.st25{fill:none;stroke:#11ACCD;stroke-width:3;stroke-linecap:round;stroke-miterlimit:10;}
	.st26{fill:#11ACCD;}
	.st27{fill:none;stroke:#01D1C1;stroke-width:2;stroke-miterlimit:10;}
	.st28{fill:none;stroke:#01D1C1;stroke-linecap:round;stroke-miterlimit:10;}
	.st29{fill:none;stroke:#01D1C1;stroke-linecap:round;stroke-linejoin:round;stroke-miterlimit:10;}
	.st30{fill:none;stroke:#01D1C1;stroke-width:1.5;stroke-miterlimit:10;}
	.st31{fill:none;stroke:#01D1C1;stroke-width:2;stroke-linecap:round;stroke-linejoin:round;stroke-miterlimit:10;}
	.st32{fill:#01D1C1;stroke:#01D1C1;stroke-linecap:round;stroke-linejoin:round;stroke-miterlimit:10;}
	.st33{fill:none;stroke:#01D1C1;stroke-miterlimit:10;}
	.st34{fill:#01D1C1;}
	.st35{fill:none;stroke:#FCA9A9;stroke-width:3;stroke-linecap:round;stroke-miterlimit:10;}
	.st36{fill:#FCA9A9;}
	.st37{font-family:'KaTeX_Math-Regular';}
	.st38{font-size:30px;}
	.st39{font-family:'KaTeX_Main-Regular';}
	.st40{font-size:24px;}
	.st41{fill:#FFFFFF;stroke:#000000;stroke-miterlimit:10;}
	.st42{fill:#11ACCD;stroke:#000000;stroke-miterlimit:10;}
	.st43{fill:#BABEC2;stroke:#BABEC2;stroke-miterlimit:10;}
	.st44{stroke:#000000;stroke-miterlimit:10;}
</style>
<g>
	<line class="st0" x1="125.4" y1="42" x2="144" y2="42"/>
	<polyline class="st7" points="78.6,42 82.5,33 90.3,51 98.1,33 105.9,51 113.7,33 121.5,51 125.4,42 	"/>
	<line class="st0" x1="60" y1="42" x2="78.6" y2="42"/>
	<rect x="60" y="30" class="st3" width="84" height="24"/>
</g>
<g>
	<line class="st0" x1="275.4" y1="42" x2="294" y2="42"/>
	<polyline class="st7" points="228.6,42 232.5,33 240.3,51 248.1,33 255.9,51 263.7,33 271.5,51 275.4,42 	"/>
	<line class="st0" x1="216" y1="42" x2="228.6" y2="42"/>
	<rect x="216" y="30" class="st3" width="78" height="24"/>
</g>
<g>
	<line class="st0" x1="359.4" y1="42" x2="372" y2="42"/>
	<polyline class="st7" points="312.6,42 316.5,33 324.3,51 332.1,33 339.9,51 347.7,33 355.5,51 359.4,42 	"/>
	<line class="st0" x1="294" y1="42" x2="312.6" y2="42"/>
	<rect x="294" y="30" class="st3" width="78" height="24"/>
</g>
<g>
	<line class="st0" x1="36" y1="60.6" x2="36" y2="42"/>
	<polyline class="st7" points="36,107.4 27,103.5 45,95.7 27,87.9 45,80.1 27,72.3 45,64.5 36,60.6 	"/>
	<line class="st0" x1="36" y1="126" x2="36" y2="107.4"/>
	<rect x="24" y="42" class="st3" width="24" height="84"/>
</g>
<g>
	<line class="st0" x1="168" y1="60.6" x2="168" y2="42"/>
	<polyline class="st7" points="168,107.4 159,103.5 177,95.7 159,87.9 177,80.1 159,72.3 177,64.5 168,60.6 	"/>
	<line class="st0" x1="168" y1="126" x2="168" y2="107.4"/>
	<rect x="156" y="42" class="st3" width="24" height="84"/>
</g>
<g>
	<line class="st0" x1="294" y1="60.6" x2="294" y2="42"/>
	<polyline class="st7" points="294,107.4 285,103.5 303,95.7 285,87.9 303,80.1 285,72.3 303,64.5 294,60.6 	"/>
	<line class="st0" x1="294" y1="126" x2="294" y2="107.4"/>
	<polyline class="st3" points="282,42 282,126 306,126 	"/>
</g>
<g>
	<circle class="st9" cx="375" cy="42" r="3"/>
	<rect x="372" y="36" class="st3" width="6" height="12"/>
</g>
<g>
	<ellipse class="st9" cx="375.1" cy="126" rx="3.1" ry="3"/>
	<rect x="372" y="120" class="st3" width="6.2" height="12"/>
</g>
<g>
	<circle class="st9" cx="213" cy="126" r="3"/>
	<rect x="210" y="120" class="st3" width="6" height="12"/>
</g>
<g>
	<circle class="st9" cx="213" cy="42" r="3"/>
	<rect x="210" y="36" class="st3" width="6" height="12"/>
</g>
<g>
	<circle class="st9" cx="183" cy="42" r="3"/>
	<rect x="180" y="36" class="st3" width="6" height="12"/>
</g>
<g>
	<circle class="st9" cx="183" cy="126" r="3"/>
	<rect x="180" y="120" class="st3" width="6" height="12"/>
</g>
<g>
	<circle class="st9" cx="21" cy="126" r="3"/>
	<rect x="18" y="120" class="st3" width="6" height="12"/>
</g>
<g>
	<circle class="st9" cx="21" cy="42" r="3"/>
	<rect x="18" y="36" class="st3" width="6" height="12"/>
</g>
<g>
	<circle class="st13" cx="294" cy="42" r="1.5"/>
	<rect x="288" y="36" class="st3" width="12" height="12"/>
</g>
<g>
	<circle class="st13" cx="168" cy="42" r="1.5"/>
	<rect x="162" y="36" class="st3" width="12" height="12"/>
</g>
<g>
	<circle class="st13" cx="36" cy="42" r="1.5"/>
	<rect x="30" y="36" class="st3" width="12" height="12"/>
</g>
<line class="st0" x1="216" y1="126" x2="372" y2="126"/>
<text transform="matrix(1 0 0 1 96 24)" class="st37 st38">π</text>
<text transform="matrix(1 0 0 1 285.3359 24)" class="st39 st40">T</text>
<line class="st9" x1="60" y1="42" x2="24" y2="42"/>
<line class="st9" x1="24" y1="126" x2="180" y2="126"/>
<line class="st9" x1="144" y1="42" x2="180" y2="42"/>
</svg>
