<?xml version="1.0" encoding="utf-8"?>
<!-- Generator: Adobe Illustrator 19.1.0, SVG Export Plug-In . SVG Version: 6.00 Build 0)  -->
<svg version="1.1" id="Layer_1" xmlns="http://www.w3.org/2000/svg" xmlns:xlink="http://www.w3.org/1999/xlink" x="0px" y="0px"
	 width="558px" height="186px" viewBox="0 0 558 186" style="enable-background:new 0 0 558 186;" xml:space="preserve">
<style type="text/css">
	.st0{fill:none;stroke:#000000;stroke-linecap:round;stroke-linejoin:round;stroke-miterlimit:10;}
	.st1{fill:none;stroke:#BABEC2;stroke-linecap:round;stroke-linejoin:round;stroke-miterlimit:10;}
	.st2{fill:none;stroke:#BABEC2;stroke-width:2;stroke-linecap:round;stroke-linejoin:round;stroke-miterlimit:10;}
	.st3{fill:none;}
	.st4{fill:none;stroke:#000000;stroke-width:1.5;stroke-linecap:round;stroke-linejoin:round;stroke-miterlimit:10;}
	.st5{fill:none;stroke:#000000;stroke-linecap:round;stroke-miterlimit:10;}
	.st6{fill:none;stroke:#000000;stroke-width:1.5;stroke-linecap:round;stroke-miterlimit:10;}
	.st7{fill:none;stroke:#000000;stroke-width:2;stroke-linecap:round;stroke-linejoin:round;stroke-miterlimit:10;}
	.st8{fill:none;stroke:#000000;stroke-width:1.5;stroke-miterlimit:10;}
	.st9{fill:none;stroke:#000000;stroke-miterlimit:10;}
	.st10{fill:none;stroke:#000000;stroke-width:2;stroke-miterlimit:10;}
	.st11{fill:none;stroke:#000000;stroke-width:2;stroke-linecap:round;stroke-miterlimit:10;}
	.st12{fill:none;stroke:#000000;stroke-linecap:round;stroke-linejoin:round;}
	.st13{stroke:#000000;stroke-linecap:round;stroke-linejoin:round;stroke-miterlimit:10;}
	.st14{fill:none;stroke:#000000;stroke-width:1.5;stroke-linejoin:round;stroke-miterlimit:10;}
	.st15{fill:none;stroke:#000000;stroke-linejoin:round;stroke-miterlimit:10;}
	.st16{clip-path:url(#SVGID_2_);fill:none;stroke:#000000;stroke-linejoin:round;stroke-miterlimit:10;}
	.st17{clip-path:url(#SVGID_2_);fill:none;stroke:#ADADEB;stroke-linejoin:round;stroke-miterlimit:10;}
	.st18{clip-path:url(#SVGID_2_);}
	.st19{stroke:#000000;stroke-linejoin:round;stroke-miterlimit:10;}
	.st20{stroke:#000000;stroke-width:3;stroke-linejoin:round;stroke-miterlimit:10;}
	.st21{fill:none;stroke:#000000;stroke-linejoin:round;}
	.st22{opacity:0.5;fill:#CCFAFF;}
	.st23{fill:none;stroke:#0C7F99;stroke-miterlimit:10;}
	.st24{fill:#0C7F99;}
	.st25{fill:none;stroke:#11ACCD;stroke-width:3;stroke-linecap:round;stroke-miterlimit:10;}
	.st26{fill:#11ACCD;}
	.st27{fill:none;stroke:#01D1C1;stroke-width:2;stroke-miterlimit:10;}
	.st28{fill:none;stroke:#01D1C1;stroke-linecap:round;stroke-miterlimit:10;}
	.st29{fill:none;stroke:#01D1C1;stroke-linecap:round;stroke-linejoin:round;stroke-miterlimit:10;}
	.st30{fill:none;stroke:#01D1C1;stroke-width:1.5;stroke-miterlimit:10;}
	.st31{fill:none;stroke:#01D1C1;stroke-width:2;stroke-linecap:round;stroke-linejoin:round;stroke-miterlimit:10;}
	.st32{fill:#01D1C1;stroke:#01D1C1;stroke-linecap:round;stroke-linejoin:round;stroke-miterlimit:10;}
	.st33{fill:none;stroke:#01D1C1;stroke-miterlimit:10;}
	.st34{fill:#01D1C1;}
	.st35{fill:none;stroke:#FCA9A9;stroke-width:3;stroke-linecap:round;stroke-miterlimit:10;}
	.st36{fill:#FCA9A9;}
	.st37{font-family:'KaTeX_Main-Regular';}
	.st38{font-size:18px;}
	.st39{letter-spacing:1;}
	.st40{font-size:21px;}
	.st41{fill:#FFFFFF;stroke:#000000;stroke-miterlimit:10;}
	.st42{fill:#11ACCD;stroke:#000000;stroke-miterlimit:10;}
	.st43{fill:#BABEC2;stroke:#BABEC2;stroke-miterlimit:10;}
	.st44{stroke:#000000;stroke-miterlimit:10;}
</style>
<rect x="96" y="0" class="st22" width="144" height="186"/>
<g>
	<circle class="st10" cx="48" cy="102" r="18"/>
	<polyline class="st5" points="48,84 48,60 48,42 78,42 	"/>
	<polyline class="st0" points="78,162 48,162 48,120 	"/>
	<line class="st8" x1="48" y1="88.5" x2="48" y2="100.5"/>
	<line class="st8" x1="42" y1="94.5" x2="54" y2="94.5"/>
	<line class="st8" x1="42" y1="112.5" x2="54" y2="112.5"/>
</g>
<g>
	<line class="st0" x1="149.4" y1="42" x2="198" y2="42"/>
	<polyline class="st7" points="102.6,42 106.5,33 114.3,51 122.1,33 129.9,51 137.7,33 145.5,51 149.4,42 	"/>
	<line class="st0" x1="84" y1="42" x2="102.6" y2="42"/>
	<rect x="84" y="30" class="st3" width="114" height="24"/>
</g>
<g>
	<line class="st0" x1="222" y1="78.6" x2="222" y2="60"/>
	<polyline class="st7" points="222,125.4 213,121.5 231,113.7 213,105.9 231,98.1 213,90.3 231,82.5 222,78.6 	"/>
	<line class="st0" x1="222" y1="162" x2="222" y2="125.4"/>
	<rect x="210" y="60" class="st3" width="24" height="102"/>
</g>
<g>
	<circle class="st9" cx="81" cy="42" r="3"/>
	<rect x="78" y="36" class="st3" width="6" height="12"/>
</g>
<g>
	<circle class="st9" cx="81" cy="162" r="3"/>
	<rect x="78" y="156" class="st3" width="6" height="12"/>
</g>
<text transform="matrix(1 0 0 1 114 25.9999)"><tspan x="0" y="0" class="st37 st38 st39">1</tspan><tspan x="10.8" y="0" class="st37 st38">Ω</tspan></text>
<text transform="matrix(1 0 0 1 180 107.9998)"><tspan x="0" y="0" class="st37 st38 st39">2</tspan><tspan x="10.8" y="0" class="st37 st38">Ω</tspan></text>
<line class="st9" x1="198" y1="42" x2="222" y2="42"/>
<line class="st9" x1="222" y1="60" x2="222" y2="42"/>
<polyline class="st9" points="222,162 192.7,162 138.2,162 116.2,162 106,162 84,162 "/>
<g>
	<g>
		<polyline class="st23" points="84,30 72,30 72,174 84,174 		"/>
		<g>
			<path class="st24" d="M90,30c-2.8-1.1-6.4-2.9-8.5-4.8l1.7,4.8l-1.7,4.8C83.6,32.9,87.2,31.1,90,30z"/>
		</g>
		<g>
			<path class="st24" d="M90,174c-2.8,1.1-6.4,2.9-8.5,4.8l1.7-4.8l-1.7-4.8C83.6,171.1,87.2,172.9,90,174z"/>
		</g>
	</g>
</g>
<text transform="matrix(1 0 0 1 6 107.9999)" class="st37 st40">V</text>
</svg>
