<?xml version="1.0" encoding="utf-8"?>
<!-- Generator: Adobe Illustrator 19.1.0, SVG Export Plug-In . SVG Version: 6.00 Build 0)  -->
<svg version="1.1" id="Layer_1" xmlns="http://www.w3.org/2000/svg" xmlns:xlink="http://www.w3.org/1999/xlink" x="0px" y="0px"
	 width="558px" height="186px" viewBox="0 0 558 186" style="enable-background:new 0 0 558 186;" xml:space="preserve">
<style type="text/css">
	.st0{fill:none;stroke:#000000;stroke-linecap:round;stroke-linejoin:round;stroke-miterlimit:10;}
	.st1{fill:none;stroke:#BABEC2;stroke-linecap:round;stroke-linejoin:round;stroke-miterlimit:10;}
	.st2{fill:none;stroke:#BABEC2;stroke-width:2;stroke-linecap:round;stroke-linejoin:round;stroke-miterlimit:10;}
	.st3{fill:none;}
	.st4{fill:none;stroke:#000000;stroke-width:1.5;stroke-linecap:round;stroke-linejoin:round;stroke-miterlimit:10;}
	.st5{fill:none;stroke:#000000;stroke-linecap:round;stroke-miterlimit:10;}
	.st6{fill:none;stroke:#000000;stroke-width:1.5;stroke-linecap:round;stroke-miterlimit:10;}
	.st7{fill:none;stroke:#000000;stroke-width:2;stroke-linecap:round;stroke-linejoin:round;stroke-miterlimit:10;}
	.st8{fill:none;stroke:#000000;stroke-width:1.5;stroke-miterlimit:10;}
	.st9{fill:none;stroke:#000000;stroke-miterlimit:10;}
	.st10{fill:none;stroke:#000000;stroke-width:2;stroke-miterlimit:10;}
	.st11{fill:none;stroke:#000000;stroke-width:2;stroke-linecap:round;stroke-miterlimit:10;}
	.st12{fill:none;stroke:#000000;stroke-linecap:round;stroke-linejoin:round;}
	.st13{stroke:#000000;stroke-linecap:round;stroke-linejoin:round;stroke-miterlimit:10;}
	.st14{fill:none;stroke:#000000;stroke-width:1.5;stroke-linejoin:round;stroke-miterlimit:10;}
	.st15{fill:none;stroke:#000000;stroke-linejoin:round;stroke-miterlimit:10;}
	.st16{clip-path:url(#SVGID_2_);fill:none;stroke:#000000;stroke-linejoin:round;stroke-miterlimit:10;}
	.st17{clip-path:url(#SVGID_2_);fill:none;stroke:#ADADEB;stroke-linejoin:round;stroke-miterlimit:10;}
	.st18{clip-path:url(#SVGID_2_);}
	.st19{stroke:#000000;stroke-linejoin:round;stroke-miterlimit:10;}
	.st20{stroke:#000000;stroke-width:3;stroke-linejoin:round;stroke-miterlimit:10;}
	.st21{fill:none;stroke:#000000;stroke-linejoin:round;}
	.st22{opacity:0.5;fill:#CCFAFF;}
	.st23{fill:none;stroke:#0C7F99;stroke-miterlimit:10;}
	.st24{fill:#0C7F99;}
	.st25{font-family:'KaTeX_Main-Regular';}
	.st26{font-size:18px;}
	.st27{letter-spacing:1;}
	.st28{fill:none;stroke:#11ACCD;stroke-width:3;stroke-linecap:round;stroke-miterlimit:10;}
	.st29{fill:#11ACCD;}
	.st30{fill:none;stroke:#01D1C1;stroke-width:2;stroke-miterlimit:10;}
	.st31{fill:none;stroke:#01D1C1;stroke-linecap:round;stroke-miterlimit:10;}
	.st32{fill:none;stroke:#01D1C1;stroke-linecap:round;stroke-linejoin:round;stroke-miterlimit:10;}
	.st33{fill:none;stroke:#01D1C1;stroke-width:1.5;stroke-miterlimit:10;}
	.st34{fill:none;stroke:#01D1C1;stroke-width:2;stroke-linecap:round;stroke-linejoin:round;stroke-miterlimit:10;}
	.st35{fill:#01D1C1;stroke:#01D1C1;stroke-linecap:round;stroke-linejoin:round;stroke-miterlimit:10;}
	.st36{fill:none;stroke:#01D1C1;stroke-miterlimit:10;}
	.st37{fill:#01D1C1;}
	.st38{fill:none;stroke:#FCA9A9;stroke-width:3;stroke-linecap:round;stroke-miterlimit:10;}
	.st39{fill:#FCA9A9;}
	.st40{font-size:21px;}
	.st41{fill:#FFFFFF;stroke:#000000;stroke-miterlimit:10;}
	.st42{fill:#11ACCD;stroke:#000000;stroke-miterlimit:10;}
	.st43{fill:#BABEC2;stroke:#BABEC2;stroke-miterlimit:10;}
	.st44{stroke:#000000;stroke-miterlimit:10;}
</style>
<rect x="462" y="18" class="st22" width="66" height="168"/>
<g>
	<circle class="st10" cx="48" cy="102" r="18"/>
	<polyline class="st5" points="48,84 48,60 48,42 78,42 	"/>
	<polyline class="st0" points="78,162 48,162 48,120 	"/>
	<line class="st8" x1="48" y1="88.5" x2="48" y2="100.5"/>
	<line class="st8" x1="42" y1="94.5" x2="54" y2="94.5"/>
	<line class="st8" x1="42" y1="112.5" x2="54" y2="112.5"/>
</g>
<g>
	<line class="st0" x1="149.4" y1="42" x2="174" y2="42"/>
	<polyline class="st7" points="102.6,42 106.5,33 114.3,51 122.1,33 129.9,51 137.7,33 145.5,51 149.4,42 	"/>
	<line class="st0" x1="84" y1="42" x2="102.6" y2="42"/>
	<rect x="84" y="30" class="st3" width="90" height="24"/>
</g>
<g>
	<line class="st0" x1="365.4" y1="42" x2="390" y2="42"/>
	<polyline class="st7" points="318.6,42 322.5,33 330.3,51 338.1,33 345.9,51 353.7,33 361.5,51 365.4,42 	"/>
	<line class="st0" x1="294" y1="42" x2="318.6" y2="42"/>
	<rect x="294" y="30" class="st3" width="96" height="24"/>
</g>
<g>
	<line class="st0" x1="222" y1="78.6" x2="222" y2="60"/>
	<polyline class="st7" points="222,125.4 213,121.5 231,113.7 213,105.9 231,98.1 213,90.3 231,82.5 222,78.6 	"/>
	<line class="st0" x1="222" y1="162" x2="222" y2="125.4"/>
	<rect x="210" y="60" class="st3" width="24" height="102"/>
</g>
<g>
	<line class="st0" x1="275.7" y1="78.6" x2="275.7" y2="60"/>
	<polyline class="st7" points="275.7,125.4 266.7,121.5 284.7,113.7 266.7,105.9 284.7,98.1 266.7,90.3 284.7,82.5 275.7,78.6 	"/>
	<line class="st0" x1="275.7" y1="162" x2="275.7" y2="125.4"/>
	<rect x="263.7" y="60" class="st3" width="24" height="102"/>
</g>
<g>
	<line class="st0" x1="402" y1="78.6" x2="402" y2="60"/>
	<polyline class="st7" points="402,125.4 393,121.5 411,113.7 393,105.9 411,98.1 393,90.3 411,82.5 402,78.6 	"/>
	<line class="st0" x1="402" y1="162" x2="402" y2="125.4"/>
	<rect x="390" y="60" class="st3" width="24" height="102"/>
</g>
<g>
	<line class="st0" x1="516" y1="78.6" x2="516" y2="60"/>
	<polyline class="st7" points="516,125.4 507,121.5 525,113.7 507,105.9 525,98.1 507,90.3 525,82.5 516,78.6 	"/>
	<line class="st0" x1="516" y1="162" x2="516" y2="125.4"/>
	<rect x="504" y="60" class="st3" width="24" height="102"/>
</g>
<g>
	<circle class="st13" cx="402" cy="162" r="1.5"/>
	<rect x="396" y="156" class="st3" width="12" height="12"/>
</g>
<g>
	<circle class="st13" cx="275.7" cy="162" r="1.5"/>
	<rect x="269.7" y="156" class="st3" width="12" height="12"/>
</g>
<g>
	<circle class="st13" cx="222" cy="162" r="1.5"/>
	<rect x="216" y="156" class="st3" width="12" height="12"/>
</g>
<g>
	<circle class="st13" cx="222" cy="42" r="1.5"/>
	<rect x="216" y="36" class="st3" width="12" height="12"/>
</g>
<g>
	<circle class="st13" cx="275.7" cy="42" r="1.5"/>
	<rect x="269.7" y="36" class="st3" width="12" height="12"/>
</g>
<g>
	<circle class="st13" cx="402" cy="42" r="1.5"/>
	<rect x="396" y="36" class="st3" width="12" height="12"/>
</g>
<g>
	<circle class="st9" cx="81" cy="42" r="3"/>
	<rect x="78" y="36" class="st3" width="6" height="12"/>
</g>
<g>
	<circle class="st9" cx="81" cy="162" r="3"/>
	<rect x="78" y="156" class="st3" width="6" height="12"/>
</g>
<text transform="matrix(1 0 0 1 114 24.0001)"><tspan x="0" y="0" class="st25 st26 st27">1</tspan><tspan x="10.8" y="0" class="st25 st26">Ω</tspan></text>
<text transform="matrix(1 0 0 1 174 107.9999)"><tspan x="0" y="0" class="st25 st26">1</tspan><tspan x="9" y="0" class="st25 st26 st27">2</tspan><tspan x="19.8" y="0" class="st25 st26">Ω</tspan></text>
<text transform="matrix(1 0 0 1 240.0001 107.9999)"><tspan x="0" y="0" class="st25 st26 st27">4</tspan><tspan x="10.8" y="0" class="st25 st26">Ω</tspan></text>
<text transform="matrix(1 0 0 1 354 107.9999)"><tspan x="0" y="0" class="st25 st26">1</tspan><tspan x="9" y="0" class="st25 st26 st27">0</tspan><tspan x="19.8" y="0" class="st25 st26">Ω</tspan></text>
<text transform="matrix(1 0 0 1 468.0001 107.9999)"><tspan x="0" y="0" class="st25 st26">1</tspan><tspan x="9" y="0" class="st25 st26 st27">0</tspan><tspan x="19.8" y="0" class="st25 st26">Ω</tspan></text>
<text transform="matrix(1 0 0 1 330 24.0001)"><tspan x="0" y="0" class="st25 st26 st27">1</tspan><tspan x="10.8" y="0" class="st25 st26">Ω</tspan></text>
<path class="st9" d="M402,42v18V42z"/>
<line class="st9" x1="174" y1="42" x2="311.7" y2="42"/>
<line class="st9" x1="222" y1="60" x2="222" y2="42"/>
<line class="st9" x1="275.7" y1="60" x2="275.7" y2="42"/>
<line class="st5" x1="390" y1="42" x2="516" y2="42"/>
<line class="st5" x1="516" y1="42" x2="516" y2="60"/>
<polyline class="st9" points="516,162 402.3,162 312,162 226.7,162 169.3,162 84,162 "/>
<g>
	<g>
		<polyline class="st23" points="462,30 450,30 450,174 462,174 		"/>
		<g>
			<path class="st24" d="M468,30c-2.8-1.1-6.4-2.9-8.5-4.8l1.7,4.8l-1.7,4.8C461.6,32.9,465.2,31.1,468,30z"/>
		</g>
		<g>
			<path class="st24" d="M468,174c-2.8,1.1-6.4,2.9-8.5,4.8l1.7-4.8l-1.7-4.8C461.6,171.1,465.2,172.9,468,174z"/>
		</g>
	</g>
</g>
<text transform="matrix(1 0 0 1 6 108)" class="st25 st40">V</text>
</svg>
