<?xml version="1.0" encoding="utf-8"?>
<!-- Generator: Adobe Illustrator 19.1.0, SVG Export Plug-In . SVG Version: 6.00 Build 0)  -->
<svg version="1.1" id="Layer_1" xmlns="http://www.w3.org/2000/svg" xmlns:xlink="http://www.w3.org/1999/xlink" x="0px" y="0px"
	 width="558px" height="180px" viewBox="0 0 558 180" style="enable-background:new 0 0 558 180;" xml:space="preserve">
<style type="text/css">
	.st0{fill:none;stroke:#000000;stroke-linecap:round;stroke-linejoin:round;stroke-miterlimit:10;}
	.st1{fill:none;stroke:#BABEC2;stroke-linecap:round;stroke-linejoin:round;stroke-miterlimit:10;}
	.st2{fill:none;stroke:#BABEC2;stroke-width:2;stroke-linecap:round;stroke-linejoin:round;stroke-miterlimit:10;}
	.st3{fill:none;}
	.st4{fill:none;stroke:#000000;stroke-width:1.5;stroke-linecap:round;stroke-linejoin:round;stroke-miterlimit:10;}
	.st5{fill:none;stroke:#000000;stroke-linecap:round;stroke-miterlimit:10;}
	.st6{fill:none;stroke:#000000;stroke-width:1.5;stroke-linecap:round;stroke-miterlimit:10;}
	.st7{fill:none;stroke:#000000;stroke-width:2;stroke-linecap:round;stroke-linejoin:round;stroke-miterlimit:10;}
	.st8{fill:none;stroke:#000000;stroke-width:1.5;stroke-miterlimit:10;}
	.st9{fill:none;stroke:#000000;stroke-miterlimit:10;}
	.st10{fill:none;stroke:#000000;stroke-width:2;stroke-miterlimit:10;}
	.st11{fill:none;stroke:#000000;stroke-width:2;stroke-linecap:round;stroke-miterlimit:10;}
	.st12{fill:none;stroke:#000000;stroke-linecap:round;stroke-linejoin:round;}
	.st13{stroke:#000000;stroke-linecap:round;stroke-linejoin:round;stroke-miterlimit:10;}
	.st14{fill:none;stroke:#000000;stroke-width:1.5;stroke-linejoin:round;stroke-miterlimit:10;}
	.st15{fill:none;stroke:#000000;stroke-linejoin:round;stroke-miterlimit:10;}
	.st16{clip-path:url(#SVGID_2_);fill:none;stroke:#000000;stroke-linejoin:round;stroke-miterlimit:10;}
	.st17{clip-path:url(#SVGID_2_);fill:none;stroke:#ADADEB;stroke-linejoin:round;stroke-miterlimit:10;}
	.st18{clip-path:url(#SVGID_2_);}
	.st19{stroke:#000000;stroke-linejoin:round;stroke-miterlimit:10;}
	.st20{stroke:#000000;stroke-width:3;stroke-linejoin:round;stroke-miterlimit:10;}
	.st21{fill:none;stroke:#000000;stroke-linejoin:round;}
	.st22{font-family:'KaTeX_Main-Regular';}
	.st23{font-size:18px;}
	.st24{letter-spacing:1;}
	.st25{opacity:0.5;fill:#CCFAFF;}
	.st26{fill:none;stroke:#0C7F99;stroke-miterlimit:10;}
	.st27{fill:#0C7F99;}
	.st28{fill:none;stroke:#11ACCD;stroke-width:3;stroke-linecap:round;stroke-miterlimit:10;}
	.st29{fill:#11ACCD;}
	.st30{font-family:'KaTeX_Main-Italic';}
	.st31{font-size:21px;}
	.st32{fill:none;stroke:#01D1C1;stroke-width:2;stroke-miterlimit:10;}
	.st33{fill:none;stroke:#01D1C1;stroke-linecap:round;stroke-miterlimit:10;}
	.st34{fill:none;stroke:#01D1C1;stroke-linecap:round;stroke-linejoin:round;stroke-miterlimit:10;}
	.st35{fill:none;stroke:#01D1C1;stroke-width:1.5;stroke-miterlimit:10;}
	.st36{fill:none;stroke:#01D1C1;stroke-width:2;stroke-linecap:round;stroke-linejoin:round;stroke-miterlimit:10;}
	.st37{fill:#01D1C1;stroke:#01D1C1;stroke-linecap:round;stroke-linejoin:round;stroke-miterlimit:10;}
	.st38{fill:none;stroke:#01D1C1;stroke-miterlimit:10;}
	.st39{fill:#01D1C1;}
	.st40{fill:none;stroke:#FCA9A9;stroke-width:3;stroke-linecap:round;stroke-miterlimit:10;}
	.st41{fill:#FCA9A9;}
	.st42{fill:#FFFFFF;stroke:#000000;stroke-miterlimit:10;}
	.st43{fill:#11ACCD;stroke:#000000;stroke-miterlimit:10;}
	.st44{fill:#BABEC2;stroke:#BABEC2;stroke-miterlimit:10;}
	.st45{stroke:#000000;stroke-miterlimit:10;}
</style>
<g>
	<circle class="st10" cx="48" cy="102" r="18"/>
	<polyline class="st5" points="48,84 48,60 48,42 78,42 	"/>
	<polyline class="st0" points="78,162 48,162 48,120 	"/>
	<line class="st8" x1="48" y1="88.5" x2="48" y2="100.5"/>
	<line class="st8" x1="42" y1="94.5" x2="54" y2="94.5"/>
	<line class="st8" x1="42" y1="112.5" x2="54" y2="112.5"/>
</g>
<g>
	<line class="st0" x1="149.4" y1="42" x2="174" y2="42"/>
	<polyline class="st7" points="102.6,42 106.5,33 114.3,51 122.1,33 129.9,51 137.7,33 145.5,51 149.4,42 	"/>
	<line class="st0" x1="84" y1="42" x2="102.6" y2="42"/>
	<rect x="84" y="30" class="st3" width="90" height="24"/>
</g>
<g>
	<line class="st0" x1="365.4" y1="42" x2="390" y2="42"/>
	<polyline class="st7" points="318.6,42 322.5,33 330.3,51 338.1,33 345.9,51 353.7,33 361.5,51 365.4,42 	"/>
	<line class="st0" x1="294" y1="42" x2="318.6" y2="42"/>
	<rect x="294" y="30" class="st3" width="96" height="24"/>
</g>
<g>
	<line class="st0" x1="521.4" y1="42" x2="540" y2="42"/>
	<polyline class="st7" points="474.6,42 478.5,33 486.3,51 494.1,33 501.9,51 509.7,33 517.5,51 521.4,42 	"/>
	<line class="st0" x1="450" y1="42" x2="474.6" y2="42"/>
	<rect x="450" y="30" class="st3" width="90" height="24"/>
</g>
<g>
	<line class="st0" x1="222" y1="78.6" x2="222" y2="60"/>
	<polyline class="st7" points="222,125.4 213,121.5 231,113.7 213,105.9 231,98.1 213,90.3 231,82.5 222,78.6 	"/>
	<line class="st0" x1="222" y1="162" x2="222" y2="125.4"/>
	<rect x="210" y="60" class="st3" width="24" height="102"/>
</g>
<g>
	<line class="st0" x1="276" y1="78.6" x2="276" y2="60"/>
	<polyline class="st7" points="276,125.4 267,121.5 285,113.7 267,105.9 285,98.1 267,90.3 285,82.5 276,78.6 	"/>
	<line class="st0" x1="276" y1="162" x2="276" y2="125.4"/>
	<rect x="264" y="60" class="st3" width="24" height="102"/>
</g>
<g>
	<line class="st0" x1="402" y1="78.6" x2="402" y2="60"/>
	<polyline class="st7" points="402,125.4 393,121.5 411,113.7 393,105.9 411,98.1 393,90.3 411,82.5 402,78.6 	"/>
	<line class="st0" x1="402" y1="162" x2="402" y2="125.4"/>
	<rect x="390" y="60" class="st3" width="24" height="102"/>
</g>
<g>
	<line class="st0" x1="540" y1="78.6" x2="540" y2="60"/>
	<polyline class="st7" points="540,125.4 531,121.5 549,113.7 531,105.9 549,98.1 531,90.3 549,82.5 540,78.6 	"/>
	<line class="st0" x1="540" y1="162" x2="540" y2="125.4"/>
	<rect x="528" y="60" class="st3" width="24" height="102"/>
</g>
<g>
	<circle class="st13" cx="402" cy="162" r="1.5"/>
	<rect x="396" y="156" class="st3" width="12" height="12"/>
</g>
<g>
	<circle class="st13" cx="276" cy="162" r="1.5"/>
	<rect x="270" y="156" class="st3" width="12" height="12"/>
</g>
<g>
	<circle class="st13" cx="222" cy="162" r="1.5"/>
	<rect x="216" y="156" class="st3" width="12" height="12"/>
</g>
<g>
	<circle class="st13" cx="222" cy="42" r="1.5"/>
	<rect x="216" y="36" class="st3" width="12" height="12"/>
</g>
<g>
	<circle class="st13" cx="276" cy="42" r="1.5"/>
	<rect x="270" y="36" class="st3" width="12" height="12"/>
</g>
<g>
	<circle class="st13" cx="402" cy="42" r="1.5"/>
	<rect x="396" y="36" class="st3" width="12" height="12"/>
</g>
<g>
	<circle class="st9" cx="81" cy="42" r="3"/>
	<rect x="78" y="36" class="st3" width="6" height="12"/>
</g>
<g>
	<circle class="st9" cx="81" cy="162" r="3"/>
	<rect x="78" y="156" class="st3" width="6" height="12"/>
</g>
<text transform="matrix(1 0 0 1 114 24)"><tspan x="0" y="0" class="st22 st23 st24">1</tspan><tspan x="10.8" y="0" class="st22 st23">Ω</tspan></text>
<text transform="matrix(1 0 0 1 174 108)"><tspan x="0" y="0" class="st22 st23">1</tspan><tspan x="9" y="0" class="st22 st23 st24">2</tspan><tspan x="19.8" y="0" class="st22 st23">Ω</tspan></text>
<text transform="matrix(1 0 0 1 240 108)"><tspan x="0" y="0" class="st22 st23 st24">4</tspan><tspan x="10.8" y="0" class="st22 st23">Ω</tspan></text>
<text transform="matrix(1 0 0 1 414 108)"><tspan x="0" y="0" class="st22 st23">1</tspan><tspan x="9" y="0" class="st22 st23 st24">0</tspan><tspan x="19.8" y="0" class="st22 st23">Ω</tspan></text>
<text transform="matrix(1 0 0 1 498 108)"><tspan x="0" y="0" class="st22 st23 st24">8</tspan><tspan x="10.8" y="0" class="st22 st23">Ω</tspan></text>
<text transform="matrix(1 0 0 1 330 24)"><tspan x="0" y="0" class="st22 st23 st24">1</tspan><tspan x="10.8" y="0" class="st22 st23">Ω</tspan></text>
<text transform="matrix(1 0 0 1 486 24)"><tspan x="0" y="0" class="st22 st23 st24">2</tspan><tspan x="10.8" y="0" class="st22 st23">Ω</tspan></text>
<path class="st9" d="M402,42v18V42z"/>
<line class="st9" x1="174" y1="42" x2="312" y2="42"/>
<line class="st9" x1="222" y1="60" x2="222" y2="42"/>
<line class="st9" x1="276" y1="60" x2="276" y2="42"/>
<line class="st9" x1="390" y1="42" x2="450" y2="42"/>
<line class="st9" x1="540" y1="42" x2="540" y2="60"/>
<polyline class="st9" points="540,162 420,162 324,162 234,162 174,162 84,162 "/>
<g>
	<g>
		<line class="st28" x1="54" y1="42" x2="62.9" y2="42"/>
		<g>
			<path class="st29" d="M72,42c-4.3,1.6-9.5,4.3-12.8,7.1l2.6-7.1l-2.6-7.1C62.5,37.7,67.7,40.4,72,42z"/>
		</g>
	</g>
</g>
<text transform="matrix(1 0 0 1 54 30)" class="st29 st30 st31">i</text>
<text transform="matrix(1 0 0 1 6 108)" class="st22 st31">V</text>
</svg>
