<?xml version="1.0" encoding="utf-8"?>
<!-- Generator: Adobe Illustrator 19.1.0, SVG Export Plug-In . SVG Version: 6.00 Build 0)  -->
<svg version="1.1" id="Layer_1" xmlns="http://www.w3.org/2000/svg" xmlns:xlink="http://www.w3.org/1999/xlink" x="0px" y="0px"
	 width="198px" height="216px" viewBox="0 0 198 216" style="enable-background:new 0 0 198 216;" xml:space="preserve">
<style type="text/css">
	.st0{fill:none;stroke:#000000;stroke-linecap:round;stroke-linejoin:round;stroke-miterlimit:10;}
	.st1{fill:none;stroke:#000000;stroke-width:1.5;stroke-linecap:round;stroke-linejoin:round;stroke-miterlimit:10;}
	.st2{fill:none;stroke:#000000;stroke-linecap:round;stroke-miterlimit:10;}
	.st3{fill:none;stroke:#000000;stroke-width:1.5;stroke-linecap:round;stroke-miterlimit:10;}
	.st4{fill:none;stroke:#000000;stroke-width:2;stroke-linecap:round;stroke-linejoin:round;stroke-miterlimit:10;}
	.st5{fill:none;stroke:#000000;stroke-width:1.5;stroke-miterlimit:10;}
	.st6{fill:none;stroke:#000000;stroke-miterlimit:10;}
	.st7{fill:none;stroke:#000000;stroke-width:2;stroke-miterlimit:10;}
	.st8{fill:none;stroke:#000000;stroke-width:2;stroke-linecap:round;stroke-miterlimit:10;}
	.st9{fill:none;stroke:#000000;stroke-linecap:round;stroke-linejoin:round;}
	.st10{fill:none;}
	.st11{stroke:#000000;stroke-linecap:round;stroke-linejoin:round;stroke-miterlimit:10;}
	.st12{fill:none;stroke:#000000;stroke-width:1.5;stroke-linejoin:round;stroke-miterlimit:10;}
	.st13{fill:none;stroke:#000000;stroke-linejoin:round;stroke-miterlimit:10;}
	.st14{clip-path:url(#SVGID_2_);fill:none;stroke:#000000;stroke-linejoin:round;stroke-miterlimit:10;}
	.st15{clip-path:url(#SVGID_2_);fill:none;stroke:#ADADEB;stroke-linejoin:round;stroke-miterlimit:10;}
	.st16{clip-path:url(#SVGID_2_);}
	.st17{stroke:#000000;stroke-linejoin:round;stroke-miterlimit:10;}
	.st18{stroke:#000000;stroke-width:3;stroke-linejoin:round;stroke-miterlimit:10;}
	.st19{fill:none;stroke:#000000;stroke-linejoin:round;}
	.st20{fill:none;stroke:#E07D10;stroke-width:2;stroke-linecap:round;stroke-miterlimit:10;}
	.st21{fill:#E07D10;}
	.st22{fill:#11ACCD;}
	.st23{font-family:'KaTeX_Main-Italic';}
	.st24{font-size:18px;}
	.st25{letter-spacing:1;}
	.st26{font-family:'KaTeX_Main-Regular';}
	.st27{font-size:21px;}
	.st28{fill:none;stroke:#11ACCD;stroke-width:2;stroke-linecap:round;stroke-linejoin:round;}
	.st29{fill:#66AFE9;}
	.st30{fill:none;stroke:#66AFE9;stroke-miterlimit:10;}
</style>
<text transform="matrix(1 0 0 1 137.7495 59.9998)" class="st22 st23 st24 st25">i</text>
<text transform="matrix(0.583 0 0 0.583 144.6255 65.994)" class="st22 st26 st24">1</text>
<text transform="matrix(1 0 0 1 137.9995 155.9999)" class="st22 st23 st24 st25">i</text>
<text transform="matrix(0.583 0 0 0.583 144.8755 161.994)" class="st22 st26 st24">2</text>
<text transform="matrix(1 0 0 1 137.7495 101.9999)" class="st22 st26 st24 st25">0</text>
<g>
	<circle class="st11" cx="113.8" cy="204" r="1.5"/>
	<rect x="107.8" y="198" class="st10" width="12" height="12"/>
</g>
<g>
	<circle class="st11" cx="113.8" cy="108" r="1.5"/>
	<rect x="107.8" y="102" class="st10" width="12" height="12"/>
</g>
<g>
	<line class="st0" x1="113.8" y1="132.6" x2="113.8" y2="114"/>
	<polyline class="st4" points="113.8,179.4 104.8,175.5 122.8,167.7 104.8,159.9 122.8,152.1 104.8,144.3 122.8,136.5 113.8,132.6 	
		"/>
	<line class="st0" x1="113.8" y1="198" x2="113.8" y2="179.4"/>
	<rect x="101.8" y="114" class="st10" width="24" height="84"/>
</g>
<g>
	<line class="st0" x1="113.8" y1="36.6" x2="113.8" y2="18"/>
	<polyline class="st4" points="113.8,83.4 104.8,79.5 122.8,71.7 104.8,63.9 122.8,56.1 104.8,48.3 122.8,40.5 113.8,36.6 	"/>
	<line class="st0" x1="113.8" y1="102" x2="113.8" y2="83.4"/>
	<rect x="101.8" y="18" class="st10" width="24" height="84"/>
</g>
<g>
	<g>
		<path class="st20" d="M53.9,174c-3.7-12.9-6.2-37.6-6.2-66c0-23.9,1.8-45.1,4.5-59"/>
		<g>
			<path class="st21" d="M53.9,42c0.5,3.6,1.6,8.2,3.3,11.3L52.1,50l-6,0.7C48.9,48.7,51.9,45,53.9,42z"/>
		</g>
	</g>
</g>
<text transform="matrix(1 0 0 1 39.5811 30.0002)" class="st21 st26 st27">+</text>
<text transform="matrix(0.583 0 0 0.583 47.75 180.9933)" class="st21 st26 st27">  </text>
<text transform="matrix(1 0 0 1 39.5811 198.0002)" class="st21 st26 st27">−</text>
<text transform="matrix(1 0 0 1 15.3005 108.0002)" class="st21 st23 st24">v</text>
<text transform="matrix(0.583 0 0 0.583 23.5803 113.9943)" class="st21 st23 st24">in</text>
<text transform="matrix(1.0107 0 0 1 165.4935 122.4002)" class="st21 st26 st27">+</text>
<text transform="matrix(0.5892 0 0 0.583 173.7499 179.7932)" class="st21 st26 st27">   </text>
<text transform="matrix(1.0107 0 0 1 165.4935 198.0003)" class="st21 st26 st27">−</text>
<g>
	<g>
		<path class="st20" d="M155.8,186c3.7-6.4,6.2-18.8,6.2-33c0-10.2-1.3-19.5-3.4-26.3"/>
		<g>
			<path class="st21" d="M155.8,120c2.4,2.7,6,5.8,9.1,7.4l-6.1,0.2l-4.5,4C155.4,128.4,155.8,123.6,155.8,120z"/>
		</g>
	</g>
</g>
<text transform="matrix(1 0 0 1 168.3699 156.0002)" class="st21 st23 st24">v</text>
<text transform="matrix(0.583 0 0 0.583 176.6497 161.9944)" class="st21 st23 st24">out</text>
<text transform="matrix(1 0 0 1 77.9999 65.9999)" class="st26 st24">R1</text>
<text transform="matrix(1 0 0 1 77.9999 156)" class="st26 st24">R2</text>
<line class="st6" x1="113.8" y1="108" x2="149.8" y2="108"/>
<polyline class="st6" points="65.8,12 113.8,12 113.8,18 "/>
<line class="st6" x1="65.8" y1="204" x2="149.8" y2="204"/>
<line class="st6" x1="113.8" y1="102" x2="113.8" y2="114"/>
<g>
	<circle class="st6" cx="152.8" cy="108" r="3"/>
	<rect x="149.8" y="102" class="st10" width="6" height="12"/>
</g>
<g>
	<circle class="st6" cx="152.8" cy="204" r="3"/>
	<rect x="149.8" y="198" class="st10" width="6" height="12"/>
</g>
<g>
	<circle class="st6" cx="62.8" cy="204" r="3"/>
	<rect x="59.8" y="198" class="st10" width="6" height="12"/>
</g>
<g>
	<circle class="st6" cx="62.8" cy="12" r="3"/>
	<rect x="59.8" y="6" class="st10" width="6" height="12"/>
</g>
<line class="st6" x1="113.8" y1="198" x2="113.8" y2="204"/>
<g>
	<g>
		<line class="st28" x1="131.8" y1="42" x2="131.8" y2="64.8"/>
		<g>
			<path class="st22" d="M131.8,72c-1.3-3.4-3.4-7.6-5.7-10.3l5.7,2.1l5.7-2.1C135.2,64.4,133,68.6,131.8,72z"/>
		</g>
	</g>
</g>
<g>
	<g>
		<line class="st28" x1="131.8" y1="144" x2="131.8" y2="166.8"/>
		<g>
			<path class="st22" d="M131.8,174c-1.3-3.4-3.4-7.6-5.7-10.3l5.7,2.1l5.7-2.1C135.2,166.4,133,170.6,131.8,174z"/>
		</g>
	</g>
</g>
<g>
	<g>
		<line class="st28" x1="125.8" y1="108" x2="136.5" y2="108"/>
		<g>
			<path class="st22" d="M143.8,108c-3.4,1.3-7.6,3.4-10.3,5.7l2.1-5.7l-2.1-5.7C136.1,104.6,140.3,106.7,143.8,108z"/>
		</g>
	</g>
</g>
</svg>
