<?xml version="1.0" encoding="utf-8"?>
<!-- Generator: Adobe Illustrator 19.1.0, SVG Export Plug-In . SVG Version: 6.00 Build 0)  -->
<svg version="1.1" id="Layer_1" xmlns="http://www.w3.org/2000/svg" xmlns:xlink="http://www.w3.org/1999/xlink" x="0px" y="0px"
	 width="420px" height="216px" viewBox="0 0 420 216" style="enable-background:new 0 0 420 216;" xml:space="preserve">
<style type="text/css">
	.st0{fill:none;stroke:#000000;stroke-linecap:round;stroke-linejoin:round;stroke-miterlimit:10;}
	.st1{fill:none;stroke:#000000;stroke-width:1.5;stroke-linecap:round;stroke-linejoin:round;stroke-miterlimit:10;}
	.st2{fill:none;stroke:#000000;stroke-linecap:round;stroke-miterlimit:10;}
	.st3{fill:none;stroke:#000000;stroke-width:1.5;stroke-linecap:round;stroke-miterlimit:10;}
	.st4{fill:none;stroke:#000000;stroke-width:2;stroke-linecap:round;stroke-linejoin:round;stroke-miterlimit:10;}
	.st5{fill:none;stroke:#000000;stroke-width:1.5;stroke-miterlimit:10;}
	.st6{fill:none;stroke:#000000;stroke-miterlimit:10;}
	.st7{fill:none;stroke:#000000;stroke-width:2;stroke-miterlimit:10;}
	.st8{fill:none;stroke:#000000;stroke-width:2;stroke-linecap:round;stroke-miterlimit:10;}
	.st9{fill:none;stroke:#000000;stroke-linecap:round;stroke-linejoin:round;}
	.st10{fill:none;}
	.st11{stroke:#000000;stroke-linecap:round;stroke-linejoin:round;stroke-miterlimit:10;}
	.st12{fill:none;stroke:#000000;stroke-width:1.5;stroke-linejoin:round;stroke-miterlimit:10;}
	.st13{fill:none;stroke:#000000;stroke-linejoin:round;stroke-miterlimit:10;}
	.st14{clip-path:url(#SVGID_2_);fill:none;stroke:#000000;stroke-linejoin:round;stroke-miterlimit:10;}
	.st15{clip-path:url(#SVGID_2_);fill:none;stroke:#ADADEB;stroke-linejoin:round;stroke-miterlimit:10;}
	.st16{clip-path:url(#SVGID_2_);}
	.st17{stroke:#000000;stroke-linejoin:round;stroke-miterlimit:10;}
	.st18{stroke:#000000;stroke-width:3;stroke-linejoin:round;stroke-miterlimit:10;}
	.st19{fill:none;stroke:#000000;stroke-linejoin:round;}
	.st20{fill:none;stroke:#E07D10;stroke-width:2;stroke-linecap:round;stroke-miterlimit:10;}
	.st21{fill:#E07D10;}
	.st22{fill:#11ACCD;}
	.st23{font-family:'KaTeX_Main-Regular';}
	.st24{font-size:21px;}
	.st25{font-family:'KaTeX_Main-Italic';}
	.st26{font-size:18px;}
	.st27{fill:none;stroke:#11ACCD;stroke-width:2;stroke-linecap:round;stroke-linejoin:round;}
	.st28{fill:#66AFE9;}
	.st29{font-family:'ProximaNova-Regular';}
	.st30{font-size:14px;}
	.st31{letter-spacing:-4;}
	.st32{font-size:12px;}
	.st33{fill:none;stroke:#66AFE9;stroke-miterlimit:10;}
</style>
<g>
	<circle class="st11" cx="222" cy="204" r="1.5"/>
	<rect x="216" y="198" class="st10" width="12" height="12"/>
</g>
<g>
	<circle class="st11" cx="222" cy="108" r="1.5"/>
	<rect x="216" y="102" class="st10" width="12" height="12"/>
</g>
<g>
	<line class="st0" x1="222" y1="132.6" x2="222" y2="114"/>
	<polyline class="st4" points="222,179.4 213,175.5 231,167.7 213,159.9 231,152.1 213,144.3 231,136.5 222,132.6 	"/>
	<line class="st0" x1="222" y1="198" x2="222" y2="179.4"/>
	<rect x="210" y="114" class="st10" width="24" height="84"/>
</g>
<g>
	<line class="st0" x1="222" y1="36.6" x2="222" y2="18"/>
	<polyline class="st4" points="222,83.4 213,79.5 231,71.7 213,63.9 231,56.1 213,48.3 231,40.5 222,36.6 	"/>
	<line class="st0" x1="222" y1="102" x2="222" y2="83.4"/>
	<rect x="210" y="18" class="st10" width="24" height="84"/>
</g>
<g>
	<g>
		<path class="st20" d="M162.2,174c-3.7-12.9-6.2-37.6-6.2-66c0-23.9,1.8-45.1,4.5-59"/>
		<g>
			<path class="st21" d="M162.2,42c0.5,3.6,1.6,8.2,3.3,11.3l-5.1-3.3l-6,0.7C157.1,48.7,160.2,45,162.2,42z"/>
		</g>
	</g>
</g>
<text transform="matrix(1 0 0 1 153.8311 30.0001)" class="st21 st23 st24">+</text>
<text transform="matrix(0.583 0 0 0.583 162 180.9932)" class="st21 st23 st24">  </text>
<text transform="matrix(1 0 0 1 153.8311 198.0001)" class="st21 st23 st24">−</text>
<text transform="matrix(1 0 0 1 129.3 108.0001)" class="st21 st25 st26">v</text>
<text transform="matrix(0.583 0 0 0.583 137.5798 113.9942)" class="st21 st25 st26">in</text>
<text transform="matrix(1.0107 0 0 1 273.7437 122.4)" class="st21 st23 st24">+</text>
<text transform="matrix(0.5892 0 0 0.583 282 179.793)" class="st21 st23 st24">   </text>
<text transform="matrix(1.0107 0 0 1 273.7437 198.0001)" class="st21 st23 st24">−</text>
<g>
	<g>
		<path class="st20" d="M264,186c3.7-6.4,6.2-18.8,6.2-33c0-10.2-1.3-19.5-3.4-26.3"/>
		<g>
			<path class="st21" d="M264,120c2.4,2.7,6,5.8,9.1,7.4l-6.1,0.2l-4.5,4C263.7,128.4,264.1,123.6,264,120z"/>
		</g>
	</g>
</g>
<text transform="matrix(1 0 0 1 276.6195 156)" class="st21 st25 st26">v</text>
<text transform="matrix(0.583 0 0 0.583 284.8993 161.9941)" class="st21 st25 st26">out</text>
<text transform="matrix(1 0 0 1 185.9999 66)" class="st23 st26">R1</text>
<text transform="matrix(1 0 0 1 185.9999 156)" class="st23 st26">R2</text>
<line class="st6" x1="222" y1="108" x2="258" y2="108"/>
<polyline class="st6" points="174,12 222,12 222,18 "/>
<line class="st6" x1="174" y1="204" x2="258" y2="204"/>
<line class="st6" x1="222" y1="102" x2="222" y2="114"/>
<g>
	<circle class="st6" cx="261" cy="108" r="3"/>
	<rect x="258" y="102" class="st10" width="6" height="12"/>
</g>
<g>
	<circle class="st6" cx="261" cy="204" r="3"/>
	<rect x="258" y="198" class="st10" width="6" height="12"/>
</g>
<g>
	<circle class="st6" cx="171" cy="204" r="3"/>
	<rect x="168" y="198" class="st10" width="6" height="12"/>
</g>
<g>
	<circle class="st6" cx="171" cy="12" r="3"/>
	<rect x="168" y="6" class="st10" width="6" height="12"/>
</g>
<line class="st6" x1="222" y1="198" x2="222" y2="204"/>
<text transform="matrix(1 0 0 1 6 84)" class="st28 st29 st30">Input voltage </text>
<text transform="matrix(1 0 0 1 89.5508 84)" class="st28 st25 st26">v</text>
<text transform="matrix(1 0 0 1 97.8306 84)" class="st28 st25 st26 st31">​</text>
<text transform="matrix(0.583 0 0 0.583 97.8306 89.9941)" class="st28 st25 st26">in</text>
<text transform="matrix(1 0 0 1 106.9497 84)" class="st28 st29 st30"> </text>
<text transform="matrix(1 0 0 1 6 100.7998)" class="st28 st29 st30">is applied to the </text>
<text transform="matrix(1 0 0 1 6 117.6001)" class="st28 st29 st30">top and bottom of </text>
<text transform="matrix(1 0 0 1 6 134.3999)" class="st28 st29 st30">the series resistors.</text>
<text transform="matrix(1 0 0 1 276 42)" class="st28 st29 st30">Output voltage</text>
<text transform="matrix(1 0 0 1 367.4185 42)" class="st28 st25 st30"> </text>
<text transform="matrix(1 0 0 1 370.9185 42)" class="st28 st25 st26">v</text>
<text transform="matrix(0.583 0 0 0.583 379.1982 47.9941)" class="st28 st25 st26">out</text>
<text transform="matrix(1 0 0 1 393.6797 42)" class="st28 st29 st32">  </text>
<text transform="matrix(1 0 0 1 276 58.7998)" class="st28 st29 st30">is measured from </text>
<text transform="matrix(1 0 0 1 276 75.6001)" class="st28 st29 st30">the central node to the </text>
<text transform="matrix(1 0 0 1 276 92.3999)" class="st28 st29 st30">bottom of resistor </text>
<text transform="matrix(1 0 0 1 387.8301 92.3999)" class="st28 st23 st30">R2.</text>
<g>
	<g>
		<polyline class="st33" points="270,72 252,78 243.6,94.7 		"/>
		<g>
			<path class="st28" d="M244.4,93.1l4.2-0.3l0,0.1l-4.7,4.2c-1.3,1.6-2.6,3.3-4,4.9c0.5-2,1-4.1,1.5-6.1l0.5-6.3l0.1-0.1
				L244.4,93.1z"/>
		</g>
	</g>
</g>
</svg>
