<?xml version="1.0" encoding="utf-8"?>
<!-- Generator: Adobe Illustrator 19.1.0, SVG Export Plug-In . SVG Version: 6.00 Build 0)  -->
<svg version="1.1" id="Layer_1" xmlns="http://www.w3.org/2000/svg" xmlns:xlink="http://www.w3.org/1999/xlink" x="0px" y="0px"
	 width="234px" height="216px" viewBox="0 0 234 216" style="enable-background:new 0 0 234 216;" xml:space="preserve">
<style type="text/css">
	.st0{fill:none;stroke:#000000;stroke-linecap:round;stroke-linejoin:round;stroke-miterlimit:10;}
	.st1{fill:none;stroke:#000000;stroke-width:1.5;stroke-linecap:round;stroke-linejoin:round;stroke-miterlimit:10;}
	.st2{fill:none;stroke:#000000;stroke-linecap:round;stroke-miterlimit:10;}
	.st3{fill:none;stroke:#000000;stroke-width:1.5;stroke-linecap:round;stroke-miterlimit:10;}
	.st4{fill:none;stroke:#000000;stroke-width:2;stroke-linecap:round;stroke-linejoin:round;stroke-miterlimit:10;}
	.st5{fill:none;stroke:#000000;stroke-width:1.5;stroke-miterlimit:10;}
	.st6{fill:none;stroke:#000000;stroke-miterlimit:10;}
	.st7{fill:none;stroke:#000000;stroke-width:2;stroke-miterlimit:10;}
	.st8{fill:none;stroke:#000000;stroke-width:2;stroke-linecap:round;stroke-miterlimit:10;}
	.st9{fill:none;stroke:#000000;stroke-linecap:round;stroke-linejoin:round;}
	.st10{fill:none;}
	.st11{stroke:#000000;stroke-linecap:round;stroke-linejoin:round;stroke-miterlimit:10;}
	.st12{fill:none;stroke:#000000;stroke-width:1.5;stroke-linejoin:round;stroke-miterlimit:10;}
	.st13{fill:none;stroke:#000000;stroke-linejoin:round;stroke-miterlimit:10;}
	.st14{clip-path:url(#SVGID_2_);fill:none;stroke:#000000;stroke-linejoin:round;stroke-miterlimit:10;}
	.st15{clip-path:url(#SVGID_2_);fill:none;stroke:#ADADEB;stroke-linejoin:round;stroke-miterlimit:10;}
	.st16{clip-path:url(#SVGID_2_);}
	.st17{stroke:#000000;stroke-linejoin:round;stroke-miterlimit:10;}
	.st18{stroke:#000000;stroke-width:3;stroke-linejoin:round;stroke-miterlimit:10;}
	.st19{fill:none;stroke:#000000;stroke-linejoin:round;}
	.st20{fill:none;stroke:#E07D10;stroke-width:2;stroke-linecap:round;stroke-miterlimit:10;}
	.st21{fill:#E07D10;}
	.st22{fill:#11ACCD;}
	.st23{fill:none;stroke:#11ACCD;stroke-width:2;stroke-linecap:round;stroke-linejoin:round;}
	.st24{font-family:'KaTeX_Main-Italic';}
	.st25{font-size:18px;}
	.st26{letter-spacing:1;}
	.st27{font-family:'KaTeX_Main-Regular';}
	.st28{font-size:21px;}
	.st29{fill:#66AFE9;}
	.st30{fill:none;stroke:#66AFE9;stroke-miterlimit:10;}
</style>
<text transform="matrix(1 0 0 1 149.7488 59.9998)" class="st22 st24 st25 st26">i</text>
<text transform="matrix(0.583 0 0 0.583 156.6248 65.994)" class="st22 st27 st25">1</text>
<text transform="matrix(1 0 0 1 149.9988 155.9998)" class="st22 st24 st25 st26">i</text>
<text transform="matrix(0.583 0 0 0.583 156.8748 161.994)" class="st22 st27 st25">2</text>
<text transform="matrix(1 0 0 1 162.9084 155.9998)" class="st22 st27 st25 st26">+</text>
<text transform="matrix(1 0 0 1 178.2625 155.9998)" class="st22 st24 st25 st26">i</text>
<text transform="matrix(0.583 0 0 0.583 185.1384 161.994)" class="st22 st27 st25">L</text>
<g>
	<circle class="st11" cx="125.7" cy="204" r="1.5"/>
	<rect x="119.7" y="198" class="st10" width="12" height="12"/>
</g>
<g>
	<circle class="st11" cx="125.7" cy="108" r="1.5"/>
	<rect x="119.7" y="102" class="st10" width="12" height="12"/>
</g>
<g>
	<line class="st0" x1="125.7" y1="132.6" x2="125.7" y2="114"/>
	<polyline class="st4" points="125.7,179.4 116.7,175.5 134.7,167.7 116.7,159.9 134.7,152.1 116.7,144.3 134.7,136.5 125.7,132.6 	
		"/>
	<line class="st0" x1="125.7" y1="198" x2="125.7" y2="179.4"/>
	<rect x="113.7" y="114" class="st10" width="24" height="84"/>
</g>
<g>
	<line class="st0" x1="125.7" y1="36.6" x2="125.7" y2="18"/>
	<polyline class="st4" points="125.7,83.4 116.7,79.5 134.7,71.7 116.7,63.9 134.7,56.1 116.7,48.3 134.7,40.5 125.7,36.6 	"/>
	<line class="st0" x1="125.7" y1="102" x2="125.7" y2="83.4"/>
	<rect x="113.7" y="18" class="st10" width="24" height="84"/>
</g>
<g>
	<g>
		<path class="st20" d="M42,174c-3.7-12.9-6.2-37.6-6.2-66c0-23.9,1.8-45.1,4.5-59"/>
		<g>
			<path class="st21" d="M42,42c0.5,3.6,1.6,8.2,3.3,11.3L40.2,50l-6,0.7C37,48.7,40,45,42,42z"/>
		</g>
	</g>
</g>
<text transform="matrix(1 0 0 1 51.5804 30.0002)" class="st21 st27 st28">+</text>
<text transform="matrix(0.583 0 0 0.583 59.7494 180.9933)" class="st21 st27 st28">  </text>
<text transform="matrix(1 0 0 1 51.5804 198.0002)" class="st21 st27 st28">−</text>
<text transform="matrix(1 0 0 1 3.3644 108.0002)" class="st21 st24 st25">v</text>
<text transform="matrix(0.583 0 0 0.583 11.6442 113.9943)" class="st21 st24 st25">in</text>
<text transform="matrix(1.0107 0 0 1 201.7435 122.4002)" class="st21 st27 st28">+</text>
<text transform="matrix(0.5892 0 0 0.583 209.9999 179.7933)" class="st21 st27 st28">   </text>
<text transform="matrix(1.0107 0 0 1 201.7435 198.0003)" class="st21 st27 st28">−</text>
<g>
	<g>
		<path class="st20" d="M192,186c3.7-6.4,6.2-18.8,6.2-33c0-10.2-1.3-19.5-3.4-26.3"/>
		<g>
			<path class="st21" d="M192,120c2.4,2.7,6,5.8,9.1,7.4l-6.1,0.2l-4.5,4C191.7,128.4,192.1,123.6,192,120z"/>
		</g>
	</g>
</g>
<text transform="matrix(1 0 0 1 204.6193 156.0002)" class="st21 st24 st25">v</text>
<text transform="matrix(0.583 0 0 0.583 212.899 161.9944)" class="st21 st24 st25">out</text>
<text transform="matrix(1 0 0 1 89.9992 65.9999)" class="st27 st25">R1</text>
<text transform="matrix(1 0 0 1 48.0002 174)" class="st27 st25">0.91 R2</text>
<text transform="matrix(1 0 0 1 48.0002 144)" class="st27 st25">R2 || R</text>
<text transform="matrix(0.583 0 0 0.583 102.5041 149.9942)" class="st27 st25">L</text>
<line class="st6" x1="125.7" y1="108" x2="161.7" y2="108"/>
<polyline class="st6" points="77.7,12 125.7,12 125.7,18 "/>
<line class="st6" x1="77.7" y1="204" x2="161.7" y2="204"/>
<line class="st6" x1="125.7" y1="102" x2="125.7" y2="114"/>
<g>
	<circle class="st6" cx="164.7" cy="108" r="3"/>
	<rect x="161.7" y="102" class="st10" width="6" height="12"/>
</g>
<g>
	<circle class="st6" cx="164.7" cy="204" r="3"/>
	<rect x="161.7" y="198" class="st10" width="6" height="12"/>
</g>
<g>
	<circle class="st6" cx="74.7" cy="204" r="3"/>
	<rect x="71.7" y="198" class="st10" width="6" height="12"/>
</g>
<g>
	<circle class="st6" cx="74.7" cy="12" r="3"/>
	<rect x="71.7" y="6" class="st10" width="6" height="12"/>
</g>
<line class="st6" x1="125.7" y1="198" x2="125.7" y2="204"/>
<g>
	<g>
		<line class="st23" x1="143.7" y1="42" x2="143.7" y2="64.8"/>
		<g>
			<path class="st22" d="M143.7,72c-1.3-3.4-3.4-7.6-5.7-10.3l5.7,2.1l5.7-2.1C147.2,64.4,145,68.6,143.7,72z"/>
		</g>
	</g>
</g>
<g>
	<g>
		<line class="st23" x1="143.7" y1="144" x2="143.7" y2="166.8"/>
		<g>
			<path class="st22" d="M143.7,174c-1.3-3.4-3.4-7.6-5.7-10.3l5.7,2.1l5.7-2.1C147.2,166.4,145,170.6,143.7,174z"/>
		</g>
	</g>
</g>
</svg>
